<?xml version="1.0" standalone="no"?>
<!DOCTYPE svg PUBLIC "-//W3C//DTD SVG 20010904//EN"
 "http://www.w3.org/TR/2001/REC-SVG-20010904/DTD/svg10.dtd">
<svg version="1.0" xmlns="http://www.w3.org/2000/svg"
 width="1350.000000pt" height="450.000000pt" viewBox="0 0 1350.000000 450.000000"
 preserveAspectRatio="xMidYMid meet">

<g transform="translate(0.000000,450.000000) scale(0.100000,-0.100000)"
fill="#000000" stroke="none">
<path d="M855 4358 c-3 -7 -4 -656 -3 -1443 l3 -1430 115 -2 c160 -3 220 -11
214 -28 -3 -8 -13 -16 -22 -18 -14 -4 -13 -6 5 -12 31 -10 17 -35 -21 -36 -29
0 -30 -1 -8 -11 34 -17 26 -30 -17 -27 -23 2 -48 -4 -64 -14 -20 -13 -48 -17
-117 -17 l-90 0 0 -599 c0 -470 3 -600 13 -604 24 -9 362 5 384 15 29 14 20
28 -18 28 -25 0 -29 4 -29 28 0 27 20 70 20 45 0 -7 9 -13 20 -13 11 0 20 -4
20 -10 0 -5 5 -10 11 -10 6 0 9 6 6 14 -3 8 -3 17 1 20 14 15 9 39 -9 43 -10
3 -19 10 -19 15 0 6 -7 8 -15 4 -12 -4 -15 3 -15 33 0 21 -3 41 -7 44 -11 11
-13 71 -4 86 7 10 34 15 93 17 45 1 68 0 51 -3 -24 -3 -33 -10 -33 -23 0 -16
6 -18 38 -14 20 3 58 12 84 20 38 11 57 12 93 3 25 -6 44 -13 42 -16 -2 -2
-55 -8 -118 -13 -177 -16 -207 -25 -161 -48 20 -11 164 7 157 19 -3 4 36 7 87
6 l93 -2 5 595 5 595 73 -335 c60 -273 77 -338 94 -351 20 -15 17 -46 -3 -34
-5 3 -7 0 -4 -7 8 -26 135 -617 135 -632 0 -8 34 -38 76 -67 l76 -51 131 1
c73 1 135 5 138 9 4 4 23 77 43 162 20 85 40 166 43 179 5 21 3 23 -20 19 -23
-4 -30 1 -53 39 -28 49 -27 68 2 30 11 -13 33 -30 49 -38 l30 -14 28 115 c15
63 29 129 31 145 6 59 19 115 26 115 4 0 10 13 12 30 3 21 1 27 -7 20 -7 -6
-16 -3 -25 10 -9 13 -21 18 -32 14 -10 -3 -18 -1 -18 5 0 6 -7 11 -15 11 -8 0
-15 4 -15 8 0 4 -15 15 -32 23 -18 9 -80 40 -138 70 -58 31 -134 68 -170 83
-176 76 -220 99 -209 112 7 9 19 10 37 4 15 -5 43 -11 62 -13 l35 -6 -30 14
c-28 13 -29 14 -6 15 14 0 32 -6 40 -14 9 -8 70 -38 136 -66 66 -28 185 -84
266 -124 l145 -74 53 224 c28 123 49 229 45 235 -10 16 -23 -9 -25 -46 -1 -17
-3 -23 -6 -12 -2 9 -8 15 -13 12 -4 -3 -15 6 -24 20 -9 14 -13 25 -9 25 4 0
-3 7 -15 16 -12 8 -22 21 -22 28 0 8 -7 17 -16 20 -14 5 -14 8 0 27 8 12 12
28 9 37 -4 10 -2 13 5 8 6 -3 13 -2 16 3 14 21 -16 21 -33 0 l-19 -23 3 27 c3
26 2 26 -18 12 -12 -8 -28 -15 -37 -15 -8 1 10 14 40 30 59 31 87 39 56 15
-11 -8 -14 -15 -8 -15 7 0 15 0 20 0 4 0 7 9 7 20 0 13 26 36 85 75 86 57 190
110 190 97 0 -4 4 -2 8 3 4 6 37 9 75 7 64 -4 66 -4 47 -20 l-20 -17 20 -37
c12 -24 20 -57 20 -87 0 -56 8 -65 48 -56 23 5 27 11 30 42 1 20 -5 47 -13 59
-21 32 -19 35 13 28 24 -7 26 -6 13 9 -7 9 -11 26 -8 37 3 10 2 19 -2 18 -24
-3 -32 5 -11 12 l25 8 -24 1 c-20 1 -23 16 -3 16 14 0 78 29 113 51 l37 23 7
-62 c4 -34 9 -107 11 -162 1 -56 5 -107 8 -115 6 -17 3 -47 -7 -56 -3 -3 -13
0 -21 9 -8 8 -12 17 -9 21 4 3 -7 6 -23 6 -24 -1 -26 -2 -12 -11 10 -5 15 -16
12 -24 -7 -18 12 -20 20 -2 3 6 3 0 0 -14 -4 -18 -1 -28 10 -32 9 -4 16 -11
16 -17 0 -6 7 -18 15 -26 13 -14 21 -62 15 -89 -1 -5 -2 -26 -1 -46 1 -29 -4
-38 -19 -42 -15 -4 -20 0 -20 15 0 16 -5 19 -24 14 -15 -4 -28 0 -36 9 -7 8
-23 15 -36 15 -14 0 -24 6 -24 15 0 8 -10 19 -21 26 -20 10 -21 9 -16 -10 6
-26 -1 -27 -19 -3 -12 15 -13 14 -14 -14 0 -23 -6 -34 -25 -42 -19 -9 -24 -9
-22 1 1 6 6 15 11 18 4 4 -6 8 -23 11 -17 2 -31 1 -31 -4 0 -13 -58 -9 -64 5
-4 8 -8 9 -11 1 -5 -9 -12 -9 -30 0 -28 12 -33 26 -10 26 8 0 15 9 15 20 0 14
-5 18 -17 14 -17 -5 -17 -5 0 9 17 15 25 43 8 32 -5 -3 -13 0 -17 7 -6 9 -10
5 -15 -12 -7 -25 -7 -25 -8 3 -1 16 -5 26 -9 23 -11 -6 -3 -64 9 -72 5 -3 9
-10 9 -15 0 -6 -4 -8 -9 -5 -5 3 -11 -1 -15 -9 -8 -23 -24 -18 -24 8 0 12 -2
46 -5 75 -4 39 -3 50 6 45 9 -5 9 -3 0 8 -7 8 -14 55 -16 105 -1 49 -4 -83 -5
-293 -1 -211 -3 -386 -4 -390 -1 -5 84 -51 188 -103 206 -104 324 -175 431
-259 100 -79 102 -81 90 -173 -6 -43 -15 -78 -20 -78 -9 0 -77 39 -87 50 -3 3
-30 14 -60 24 -30 10 -62 25 -70 32 -9 7 -36 20 -60 29 -24 8 -64 34 -90 58
-26 23 -75 62 -109 85 -33 24 -61 48 -61 53 0 14 16 11 29 -5 17 -20 51 -28
44 -10 -7 18 11 18 27 -1 6 -8 39 -30 73 -48 34 -19 100 -56 146 -81 46 -26
85 -45 87 -43 11 11 -94 105 -124 112 -17 3 -35 11 -38 17 -5 7 2 9 22 4 l29
-7 -33 30 c-18 17 -37 31 -43 31 -5 0 -9 4 -9 9 0 31 -274 189 -335 194 l-27
2 -4 -346 -3 -346 472 -6 c260 -4 581 -7 714 -7 l242 0 51 163 c28 89 57 180
64 202 l13 40 199 3 c192 2 200 3 217 25 l18 22 -11 -22 c-10 -21 -8 -23 20
-23 18 0 33 6 36 15 8 19 40 20 51 2 4 -8 15 -16 24 -19 12 -5 26 -54 54 -200
20 -106 38 -194 40 -196 2 -3 162 -4 276 -2 18 0 29 8 37 25 15 32 45 32 70 0
l20 -25 186 0 c171 0 186 1 186 18 0 9 -6 53 -13 97 -19 115 -13 201 16 232
22 25 47 87 47 116 0 14 7 40 15 59 7 19 15 55 16 79 1 24 7 50 13 57 15 21 8
80 -19 149 -14 34 -25 75 -25 92 0 16 -7 59 -15 94 -13 57 -13 70 0 107 19 54
19 84 0 100 -13 11 -20 9 -40 -10 -14 -13 -25 -30 -25 -37 0 -8 -4 -12 -9 -9
-17 11 -32 -23 -29 -66 l3 -43 12 35 11 35 1 -40 c1 -41 -23 -182 -32 -191 -3
-3 -8 25 -12 63 -10 101 -13 99 -14 -10 -1 -64 3 -96 9 -92 7 4 8 -7 4 -32 -4
-21 -9 -87 -13 -148 -6 -106 -12 -111 -25 -20 -19 131 -38 254 -43 275 -4 14
-5 32 -4 40 2 11 -2 10 -19 -5 -20 -18 -23 -19 -48 -2 -61 38 -96 49 -145 44
l-49 -4 51 49 c28 27 56 46 61 43 6 -4 35 5 65 19 41 18 55 30 55 45 0 28 -8
26 -43 -6 l-29 -28 21 42 c11 23 25 44 31 48 5 3 10 11 10 16 0 5 -10 3 -22
-5 -13 -7 -45 -21 -73 -30 -46 -15 -108 -60 -117 -85 -1 -6 -13 -8 -24 -5 -20
5 -19 9 20 51 22 25 62 56 87 69 26 13 61 42 79 65 l33 41 -11 71 c-7 40 -32
205 -57 367 -25 162 -54 347 -64 410 -11 63 -25 154 -32 203 -7 48 -15 87 -19
87 -4 0 -13 -6 -20 -14 -11 -15 -40 -11 -40 5 0 4 14 16 31 26 27 16 30 22 25
53 -4 19 -26 168 -51 330 -25 162 -54 349 -65 415 -18 111 -93 596 -125 815
-8 52 -17 110 -20 128 l-6 33 -469 -3 c-257 -2 -471 -6 -475 -9 -7 -7 -32
-164 -214 -1309 l-67 -425 35 -6 36 -6 -32 -2 c-33 -1 -52 -16 -31 -24 10 -3
7 -21 -11 -73 -36 -103 -42 -142 -22 -147 13 -4 13 -5 -1 -6 -10 0 -18 -3 -18
-5 0 -14 -66 -436 -104 -661 -25 -148 -47 -288 -50 -310 -9 -64 -105 -657
-113 -695 -5 -19 -10 372 -13 870 -3 519 -9 913 -14 924 -7 14 -6 17 2 12 9
-5 12 47 12 210 0 211 0 216 -20 211 -11 -3 -20 -1 -20 4 0 5 9 9 20 9 26 0
25 10 -5 39 -27 25 -34 57 -11 48 8 -3 17 -1 20 6 3 7 3 0 0 -15 -4 -17 -2
-28 5 -28 8 0 11 191 11 689 l0 689 -304 7 c-293 7 -614 0 -627 -13 -4 -4 -29
-113 -57 -242 -29 -129 -65 -293 -81 -365 -36 -162 -81 -375 -86 -412 -2 -15
-6 -37 -10 -48 -3 -11 3 -4 13 15 11 19 23 34 26 33 3 -2 6 -1 6 2 0 3 5 12
12 19 15 16 32 10 22 -6 -5 -7 -2 -8 5 -4 7 5 10 14 8 20 -3 7 -2 18 2 24 4 6
7 -45 6 -113 0 -69 -4 -125 -8 -125 -5 0 -5 5 -1 12 4 7 3 8 -5 4 -10 -7 -65
27 -57 35 3 2 -9 5 -25 6 -25 2 -30 -2 -39 -35 -23 -88 -23 -100 -1 -107 28
-8 71 -62 65 -80 -3 -8 -28 -17 -61 -21 -49 -6 -53 -8 -39 -22 13 -13 12 -17
-10 -34 -13 -11 -24 -24 -24 -30 0 -6 9 -3 20 7 21 19 50 14 50 -9 0 -7 6 -16
13 -19 21 -8 14 46 -8 65 -25 20 -21 24 33 31 40 5 45 3 63 -26 10 -18 19 -35
19 -39 0 -11 -93 -49 -107 -44 -7 3 -13 2 -13 -3 0 -8 -56 -25 -72 -23 -8 2
-9 -3 -33 -106 -10 -40 -19 -72 -21 -70 -4 4 -72 337 -94 463 -10 55 -35 187
-56 293 -34 177 -39 193 -57 188 -17 -4 -18 -3 -3 13 18 20 21 51 6 51 -5 0
-10 -5 -10 -12 0 -6 -3 -8 -6 -5 -4 4 -1 13 6 21 10 13 7 42 -16 155 -27 137
-28 139 -56 143 -15 3 -28 1 -28 -3 0 -4 -13 -6 -29 -5 -16 1 -29 -2 -28 -8 1
-6 -3 -10 -10 -11 -6 0 -15 -4 -20 -9 -5 -5 6 -6 25 -3 21 4 31 3 27 -3 -10
-16 -48 -11 -75 10 -14 11 -20 20 -13 20 7 0 10 7 6 17 -4 11 -3 14 6 9 6 -4
18 -2 26 4 8 7 15 9 15 4 0 -21 85 -5 118 21 1 1 -11 67 -27 146 -16 79 -32
161 -36 182 l-6 37 -127 -1 c-70 -1 -119 -3 -109 -6 9 -2 17 -9 17 -13 0 -6
11 -5 26 0 38 15 59 13 45 -4 -6 -7 -9 -21 -5 -30 4 -9 1 -16 -6 -16 -7 0 -10
-7 -6 -15 7 -18 -34 -21 -66 -4 -15 8 -23 8 -32 -1 -8 -8 -7 -10 7 -5 21 9 22
-1 2 -21 -12 -13 -17 -13 -28 -2 -20 21 -6 67 22 69 9 1 5 4 -9 8 -14 4 -24
13 -22 19 4 19 -16 14 -28 -7 -5 -11 -10 -29 -10 -40 0 -12 -3 -21 -7 -21 -5
0 -6 22 -5 50 3 32 0 50 -7 50 -6 0 -11 -8 -11 -18 0 -31 -120 -155 -135 -141
-2 3 3 31 11 64 23 101 46 92 -223 94 -130 1 -240 4 -245 7 -4 3 -10 -1 -13
-8z m467 -50 c-8 -8 -9 -4 -5 13 4 13 8 18 11 10 2 -7 -1 -18 -6 -23z m488 11
c0 -6 -4 -7 -10 -4 -5 3 -10 -1 -10 -9 0 -18 -16 -21 -25 -6 -3 6 -19 10 -35
10 -16 0 -32 5 -35 10 -4 6 10 10 34 10 22 0 41 -5 44 -12 3 -9 7 -7 12 4 7
18 25 15 25 -3z m-366 -131 c-15 -126 -52 -222 -115 -304 -23 -30 -45 -54 -50
-54 -14 0 -22 21 -11 32 13 13 3 48 -13 42 -9 -4 -11 4 -9 26 3 25 1 31 -11
27 -10 -5 -9 3 6 30 11 19 19 45 18 57 -6 53 20 100 77 141 31 22 70 57 87 77
17 21 31 37 32 35 2 -1 -3 -50 -11 -109z m-124 89 c0 -7 -7 -22 -15 -33 -13
-17 -13 -16 -3 14 13 34 18 40 18 19z m494 -34 c10 -26 0 -25 -18 1 -13 20
-13 24 -2 20 8 -3 17 -13 20 -21z m-347 -100 c-3 -10 -5 -4 -5 12 0 17 2 24 5
18 2 -7 2 -21 0 -30z m3116 -10 c-7 -2 -21 -2 -30 0 -10 3 -4 5 12 5 17 0 24
-2 18 -5z m95 0 c-10 -2 -28 -2 -40 0 -13 2 -5 4 17 4 22 1 32 -1 23 -4z
m-218 -26 c-83 -30 -147 -67 -209 -123 -48 -44 -49 -46 -66 -139 -16 -87 -16
-121 1 -195 4 -18 1 -15 -10 9 -20 42 -20 115 -1 205 16 78 47 117 141 182 55
38 158 84 189 84 11 0 -9 -11 -45 -23z m61 -103 c33 -30 -6 -94 -70 -115 -20
-7 -41 -19 -46 -26 -9 -12 -16 -12 -38 -2 l-27 12 19 33 c11 19 23 49 27 68 6
36 11 39 77 44 26 2 46 -3 58 -14z m-2693 -16 c6 -1 12 -5 12 -10 0 -12 -28
-10 -36 3 -4 7 -23 9 -53 5 -33 -4 -42 -3 -31 4 13 9 38 9 108 -2z m1365 -87
c26 -25 47 -51 47 -59 0 -7 4 -11 9 -8 8 5 22 -32 27 -69 0 -5 5 -19 10 -30
15 -32 9 -165 -10 -229 -9 -32 -19 -57 -21 -55 -2 2 0 32 4 66 6 50 4 69 -11
99 -10 21 -18 43 -18 49 0 7 -9 20 -21 31 -24 22 -49 77 -49 108 0 27 -18 46
-42 46 -19 0 -42 35 -33 50 3 6 1 10 -5 10 -7 0 -10 7 -7 15 4 8 1 17 -5 21
-7 4 -6 10 3 16 11 7 11 11 1 15 -6 2 -9 9 -6 14 7 12 61 -26 127 -90z m-38
68 c31 -27 63 -69 52 -69 -1 0 -25 23 -52 50 -55 56 -55 67 0 19z m302 -1 c-3
-8 -6 -5 -6 6 -1 11 2 17 5 13 3 -3 4 -12 1 -19z m835 -70 c-7 -7 -12 -8 -12
-2 0 6 3 14 7 17 3 4 9 5 12 2 2 -3 -1 -11 -7 -17z m-2606 -3 c-11 -8 -29 -15
-40 -15 -19 1 -19 2 4 15 35 20 62 19 36 0z m2637 -42 c56 -15 62 -20 98 -77
l38 -61 -34 -17 c-19 -10 -47 -34 -62 -53 -15 -19 -36 -35 -46 -35 -11 0 -21
-10 -25 -22 -4 -14 -15 34 -28 122 -12 80 -20 148 -17 153 6 10 8 9 76 -10z
m-1195 -19 c17 -5 22 -14 22 -37 0 -33 44 -117 62 -117 6 0 8 -9 3 -22 -3 -13
-7 -28 -7 -35 -2 -14 -73 -47 -86 -39 -17 10 -10 56 10 70 18 13 18 14 -13 13
l-32 -2 -2 60 c-1 45 4 65 17 80 18 19 18 20 1 27 -22 8 -6 10 25 2z m-1554
-12 c3 -5 -8 -19 -24 -30 -49 -36 -68 -26 -27 15 23 23 42 29 51 15z m-318
-214 c4 -80 0 -119 -30 -276 -20 -101 -36 -208 -36 -239 0 -101 -41 -314 -92
-483 -55 -179 -98 -339 -118 -437 -7 -35 -19 -71 -26 -80 -12 -17 -13 -16 -14
8 0 54 64 362 95 454 6 18 4 17 -14 -4 -12 -13 -21 -32 -21 -43 0 -13 -5 -18
-14 -15 -10 4 -12 0 -9 -14 4 -13 0 -19 -10 -19 -16 0 -13 34 5 57 7 8 5 18
-6 28 -11 11 -16 12 -16 4 0 -7 -2 -10 -5 -7 -3 3 2 22 11 44 12 28 13 43 6
55 -6 9 -8 20 -4 24 4 3 7 20 8 36 1 16 11 64 22 107 12 42 31 118 43 167 12
50 35 140 50 200 40 156 53 258 41 324 -7 40 -7 62 3 84 17 40 25 22 22 -47
-2 -31 0 -56 5 -56 7 0 27 31 25 40 -2 11 26 106 34 115 5 5 9 25 9 45 0 20 3
40 7 44 14 14 24 -26 29 -116z m1350 7 c10 -17 28 -40 39 -53 30 -35 46 -99
29 -113 -8 -6 -14 -17 -14 -24 0 -24 -50 -47 -91 -42 -64 7 -86 50 -76 147 6
54 14 82 40 138 l11 23 21 -23 c12 -13 30 -37 41 -53z m-1302 -51 c4 -10 1
-14 -6 -12 -15 5 -23 28 -10 28 5 0 13 -7 16 -16z m1886 -114 c-60 -153 -129
-230 -206 -230 -56 0 -126 71 -125 128 0 39 7 67 16 74 39 30 213 73 307 77
l28 1 -20 -50z m1795 -1 c4 -6 -2 -21 -14 -33 -12 -12 -21 -27 -21 -34 0 -23
-23 -60 -44 -70 -16 -8 -17 -11 -4 -11 9 -1 25 10 36 24 11 14 25 25 31 25 5
0 16 10 23 23 l12 22 6 -25 c4 -14 3 -29 -1 -34 -4 -5 -1 -25 6 -44 14 -33 13
-38 -19 -111 -19 -42 -51 -119 -71 -171 -20 -52 -40 -99 -44 -103 -5 -5 -16 0
-26 9 -21 21 -16 72 21 214 33 129 32 140 -8 140 -31 1 -32 2 -14 15 17 13 15
14 -19 8 -41 -7 -59 8 -48 42 7 24 26 38 112 87 74 41 77 42 86 27z m-3038
-45 c24 -7 40 -34 19 -34 -16 0 -66 39 -51 40 6 0 20 -3 32 -6z m2237 -111 c3
-4 6 7 7 23 l0 29 11 -25 c5 -14 17 -37 25 -53 13 -25 12 -30 -6 -52 l-19 -26
-18 58 c-9 32 -18 81 -20 108 l-3 50 8 -53 c5 -29 12 -56 15 -59z m-2457 82
c3 -9 3 -19 -1 -22 -7 -7 -36 16 -36 28 0 15 30 10 37 -6z m1484 -43 c-32 -64
-70 -114 -71 -93 0 7 13 30 29 50 15 20 36 51 45 69 9 17 19 32 21 32 3 0 -8
-26 -24 -58z m1866 36 c-3 -8 -6 -5 -6 6 -1 11 2 17 5 13 3 -3 4 -12 1 -19z
m-633 -40 c45 -11 82 -22 84 -23 8 -8 -20 -45 -34 -45 -8 0 -12 -5 -9 -11 5
-7 -11 -9 -48 -6 -52 4 -100 27 -111 55 -9 20 9 14 34 -13 13 -14 33 -25 44
-25 16 1 14 4 -11 15 -41 18 -86 96 -46 81 9 -4 53 -16 97 -28z m-3191 7 c-3
-9 -8 -14 -10 -11 -3 3 -2 9 2 15 9 16 15 13 8 -4z m1851 -165 c-45 -63 -59
-72 -50 -34 4 19 3 24 -3 15 -5 -7 -14 -10 -20 -7 -18 11 -13 22 15 34 20 10
24 10 18 0 -4 -7 6 -1 22 15 47 44 57 31 18 -23z m-181 3 l-17 -26 51 7 c48 6
53 5 68 -18 21 -32 13 -57 -30 -95 -23 -20 -30 -31 -20 -34 7 -3 33 16 60 44
25 27 44 49 42 49 -2 0 11 16 29 36 19 19 34 41 34 47 1 7 8 -6 17 -28 17 -45
36 -207 28 -245 -8 -34 -58 -130 -68 -130 -5 0 -6 3 -4 8 3 4 -21 7 -54 7 -32
0 -59 -3 -59 -7 0 -5 -8 -8 -17 -8 -10 0 -62 -16 -116 -34 -95 -34 -98 -34
-91 -13 15 48 14 50 -5 10 -21 -46 -32 -50 -69 -29 -22 12 -23 14 -8 29 9 8
16 20 16 25 0 5 10 14 23 21 l22 12 -23 -5 c-12 -2 -20 0 -16 5 8 13 48 11 63
-3 11 -11 14 -10 18 0 3 7 10 18 16 25 7 7 13 19 15 27 5 21 43 72 50 65 3 -3
-15 -46 -40 -95 -46 -90 -49 -103 -22 -75 9 8 12 15 8 15 -4 0 1 9 11 20 10
11 15 20 11 20 -4 0 2 12 13 26 12 15 21 33 21 40 0 8 5 14 10 14 6 0 10 9 10
21 0 20 33 72 41 65 2 -2 10 3 18 12 13 13 12 14 -12 8 -59 -14 -14 64 56 101
16 8 27 17 24 20 -8 7 -49 -16 -82 -48 l-30 -28 -20 61 c-15 48 -17 62 -7 66
10 3 8 8 -5 19 -17 14 -17 14 4 10 13 -3 26 -1 29 4 3 5 10 9 15 9 5 0 2 -12
-8 -27z m1325 -22 c-9 -15 -9 -25 -1 -43 9 -18 12 -19 12 -5 1 9 6 17 11 17 6
0 10 -22 10 -50 0 -37 10 -72 40 -136 44 -96 44 -94 31 -94 -5 0 -24 35 -41
78 -18 42 -38 91 -45 107 -7 17 -20 51 -28 76 -13 41 -13 47 2 57 22 15 23 15
9 -7z m-1373 -51 c30 -86 31 -80 -15 -80 -34 0 -41 3 -36 16 3 9 6 36 6 61 0
36 3 44 17 41 9 -2 21 -19 28 -38z m2162 -12 c-2 -13 -4 -5 -4 17 -1 22 1 32
4 23 2 -10 2 -28 0 -40z m-1664 22 c-6 -23 -22 -37 -19 -18 2 14 15 38 21 38
2 0 1 -9 -2 -20z m-2097 -42 c5 -8 2 -9 -9 -5 -10 3 -17 3 -17 -2 0 -4 -10
-20 -23 -34 -21 -25 -23 -25 -23 -7 0 11 8 23 18 26 10 3 18 12 18 20 0 17 26
19 36 2z m-51 -8 c-3 -5 -11 -10 -16 -10 -6 0 -7 5 -4 10 3 6 11 10 16 10 6 0
7 -4 4 -10z m3792 -52 c-3 -8 -6 -5 -6 6 -1 11 2 17 5 13 3 -3 4 -12 1 -19z
m-3017 -71 c-7 -17 -9 -10 -9 28 1 43 2 46 9 22 5 -16 5 -38 0 -50z m2269 23
c0 -9 -4 -8 -9 5 -5 11 -9 27 -9 35 0 9 4 8 9 -5 5 -11 9 -27 9 -35z m719 25
c0 -13 -9 -32 -20 -42 -18 -16 -19 -16 -13 3 8 22 27 64 30 64 2 0 3 -11 3
-25z m-2078 1 c0 -16 -21 -26 -55 -26 -21 0 -25 9 -16 38 1 1 17 2 36 2 23 0
35 -5 35 -14z m522 -68 c-15 -10 -31 -18 -36 -18 -5 0 -18 -8 -28 -17 -18 -16
-18 -16 -11 3 8 23 23 51 43 81 l15 23 21 -28 22 -27 -26 -17z m1508 3 c-11
-57 -30 -102 -59 -141 -17 -21 -21 -22 -36 -10 -12 10 -15 28 -14 72 2 61 0
60 47 41 6 -3 12 1 12 8 0 11 3 11 10 -1 8 -12 10 -11 10 8 0 24 28 87 36 80
2 -3 0 -28 -6 -57z m-2522 -6 c14 -23 18 -35 10 -35 -7 0 -23 16 -36 35 -14
23 -18 35 -10 35 7 0 23 -16 36 -35z m854 -42 c7 -14 24 -25 45 -29 32 -6 37
-24 6 -24 -22 0 -73 59 -72 84 0 13 2 16 6 6 2 -8 9 -25 15 -37z m-49 17 c-3
-12 -8 -19 -11 -16 -5 6 5 36 12 36 2 0 2 -9 -1 -20z m101 -7 c9 4 16 2 16 -2
0 -5 -6 -11 -14 -14 -14 -6 -46 21 -46 38 0 5 6 0 14 -10 8 -11 19 -16 30 -12z
m976 -8 c0 -5 -5 -3 -10 5 -5 8 -10 20 -10 25 0 6 5 3 10 -5 5 -8 10 -19 10
-25z m-1482 -20 c-22 -45 -38 -58 -38 -30 0 11 -7 14 -24 9 -26 -6 -44 12 -28
28 5 5 31 15 58 23 27 7 50 14 51 14 2 1 -7 -19 -19 -44z m-108 5 c0 -4 -6
-13 -13 -19 -10 -8 -19 -7 -33 4 -15 12 -16 16 -5 24 14 9 51 3 51 -9z m-240
-23 c8 -14 11 -29 8 -33 -9 -8 -58 48 -51 59 8 13 27 2 43 -26z m-48 -4 c18
-16 26 -49 9 -39 -18 11 -42 -6 -39 -28 4 -31 -15 -26 -48 13 -22 27 -25 33
-10 28 15 -6 17 -5 7 7 -10 11 -7 16 16 24 39 14 44 14 65 -5z m254 -20 c-7
-7 -46 16 -46 28 0 5 11 2 25 -7 14 -9 24 -19 21 -21z m616 2 c0 -14 -29 -31
-38 -22 -9 8 16 39 28 35 5 -2 10 -8 10 -13z m-963 -40 c17 -20 31 -41 31 -49
0 -7 -18 -22 -40 -35 -36 -20 -42 -21 -61 -8 -25 18 -60 65 -38 52 12 -8 12
-6 0 9 -16 19 -10 27 34 50 40 21 38 21 74 -19z m846 15 c10 -11 16 -20 13
-20 -3 0 -13 9 -23 20 -10 11 -16 20 -13 20 3 0 13 -9 23 -20z m8 -34 c22 -17
22 -22 -5 -23 -13 0 -17 1 -10 4 10 4 8 9 -5 19 -10 7 -13 13 -8 13 6 0 18 -6
28 -13z m1013 5 c-3 -5 -34 -23 -68 -41 -35 -18 -76 -42 -93 -53 -18 -12 -24
-14 -15 -4 12 13 167 106 178 107 2 0 1 -4 -2 -9z m-3006 -35 c0 -2 -9 -6 -20
-9 -11 -3 -18 -1 -14 4 5 9 34 13 34 5z m2038 -45 c31 -23 39 -35 35 -51 -3
-11 -9 -22 -13 -25 -14 -9 -99 45 -94 59 3 8 -2 21 -11 30 -31 30 37 19 83
-13z m990 4 c-6 -14 -14 -25 -18 -25 -4 0 -7 -6 -7 -13 0 -19 -45 -77 -59 -77
-32 0 -22 27 32 81 32 32 60 59 61 59 1 0 -3 -11 -9 -25z m-1495 8 c8 -7 -41
-63 -55 -63 -4 0 -13 10 -19 22 -10 18 -8 24 7 35 19 14 56 17 67 6z m1400
-57 c-22 -36 -33 -45 -62 -49 -21 -2 -47 2 -61 10 -14 8 -18 12 -9 9 9 -2 47
13 85 34 38 22 70 39 71 40 1 0 -9 -20 -24 -44z m-1510 9 c50 -4 52 -19 10
-66 -21 -24 -30 -38 -20 -30 10 8 17 9 17 3 0 -45 -75 9 -82 59 -4 25 -2 29
16 24 12 -3 15 -2 9 1 -20 9 -15 27 5 19 9 -4 30 -8 45 -10z m-183 -33 c0 -15
-2 -15 -10 -2 -13 20 -13 33 0 25 6 -3 10 -14 10 -23z m-512 -28 c-14 -31 -28
-31 -28 -1 0 29 7 37 25 30 11 -4 11 -10 3 -29z m52 6 c0 -5 -9 -14 -21 -20
-19 -11 -20 -10 -9 9 11 22 30 29 30 11z m524 -5 c11 -8 15 -15 9 -15 -19 0
-43 12 -43 21 0 13 12 11 34 -6z m1491 -21 l40 -17 -45 -12 c-25 -7 -62 -20
-84 -29 -21 -9 -41 -16 -43 -16 -3 0 -3 19 0 43 l5 42 -17 -53 c-9 -29 -26
-60 -36 -70 -12 -10 -15 -11 -8 -2 6 8 17 38 24 65 6 28 17 56 23 64 13 17 84
9 141 -15z m111 1 c24 -18 7 -19 -26 0 -16 9 -19 14 -9 15 8 0 24 -7 35 -15z
m-2046 -48 c0 -14 -33 -67 -42 -67 -4 0 -5 -7 -1 -16 4 -12 1 -15 -13 -12 -10
2 -24 19 -32 40 -13 34 -13 40 8 72 l21 36 30 -22 c16 -12 29 -26 29 -31z
m-97 21 c-13 -12 -26 -18 -30 -14 -4 4 1 14 11 22 31 22 43 17 19 -8z m603 8
c19 -15 18 -16 -8 -42 -23 -23 -29 -25 -43 -14 -12 10 -13 16 -4 26 6 8 8 14
4 14 -4 0 -2 7 5 15 15 19 21 19 46 1z m47 -68 c-3 -24 -7 -45 -9 -47 -2 -2
-15 4 -29 13 -25 17 -25 17 -8 46 9 17 25 30 34 30 14 0 16 -7 12 -42z m802
20 c0 -9 8 -25 18 -35 9 -11 17 -27 17 -37 0 -14 -4 -15 -20 -6 -28 15 -50 62
-32 68 10 3 10 7 0 20 -11 13 -11 14 2 10 8 -2 15 -12 15 -20z m1065 -19 c-19
-4 -57 -12 -85 -18 -46 -9 -43 -10 30 -5 53 3 86 11 97 21 33 29 18 -3 -16
-36 -31 -30 -37 -32 -97 -29 l-64 3 -3 35 -3 35 88 1 c62 0 78 -2 53 -7z
m-3493 -59 c-1 -11 -3 -17 -6 -14 -3 2 -11 -6 -17 -18 -12 -22 -13 -22 -9 7 2
17 4 35 4 42 1 7 7 10 15 7 8 -3 14 -14 13 -24z m3343 -9 c0 -8 -16 -42 -35
-77 -34 -60 -37 -63 -61 -54 -30 12 -46 27 -63 58 -11 20 -10 26 8 41 11 10
45 23 76 30 40 9 55 17 55 29 0 15 2 15 10 2 5 -8 10 -21 10 -29z m205 -15
c-10 -14 -21 -26 -26 -26 -15 0 -10 32 8 52 24 27 39 6 18 -26z m-1105 3 c0
-8 -40 -29 -56 -29 -9 0 -3 37 8 48 12 12 48 -1 48 -19z m-2490 11 c0 -5 -2
-10 -4 -10 -3 0 -8 5 -11 10 -3 6 -1 10 4 10 6 0 11 -4 11 -10z m1208 -30 c10
-39 9 -41 -19 -56 -27 -13 -31 -13 -51 6 -20 18 -20 20 -3 20 17 0 17 1 0 20
-20 22 -20 22 10 38 37 21 52 14 63 -28z m2311 11 c12 -7 9 -20 -13 -76 -15
-37 -26 -69 -24 -70 11 -11 61 13 95 45 36 33 78 52 121 54 7 1 16 6 20 12 9
14 42 26 42 15 0 -5 9 -7 20 -4 45 12 14 -25 -72 -87 -50 -36 -93 -71 -96 -79
-4 -11 2 -10 24 2 71 39 184 79 184 66 0 -9 -50 -33 -59 -29 -2 1 -7 -2 -10
-7 -10 -13 -85 -47 -100 -44 -8 1 -10 -2 -5 -10 4 -7 3 -10 -4 -5 -14 9 -78
-28 -74 -44 1 -6 -2 -9 -7 -6 -10 7 -67 -72 -57 -81 3 -3 6 -1 6 5 0 7 5 12
11 12 5 0 7 -4 4 -10 -3 -5 1 -10 10 -10 9 0 13 -4 10 -10 -3 -5 -14 -10 -25
-10 -21 0 -35 -26 -17 -34 11 -4 -18 -10 -36 -7 -4 1 -20 -20 -36 -46 -16 -27
-41 -67 -56 -90 l-27 -43 -61 0 c-34 0 -67 4 -74 8 -6 4 -17 38 -23 75 -7 37
-16 67 -20 67 -12 0 -30 83 -30 138 0 26 6 57 15 68 13 18 14 18 8 -6 -5 -24
-5 -24 10 -5 8 11 13 23 11 26 -2 4 15 11 38 17 36 9 45 8 66 -9 14 -10 30
-19 36 -19 6 0 4 5 -4 10 -14 10 17 8 119 -6 23 -3 40 1 52 12 13 12 28 15 51
10 31 -5 32 -5 14 9 -27 21 -46 19 -74 -7 l-25 -23 18 28 c19 29 45 34 92 16
27 -10 27 -9 10 8 -22 22 -94 24 -107 3 -5 -8 -10 -10 -10 -5 0 6 -8 11 -17
12 -54 2 -103 7 -103 11 0 10 75 148 85 154 14 11 77 10 94 -1z m-2674 -10 c7
-12 -12 -24 -25 -16 -11 7 -4 25 10 25 5 0 11 -4 15 -9z m64 -66 c11 -40 -5
-57 -27 -29 -10 11 -23 19 -30 16 -6 -2 -12 1 -12 7 0 6 5 11 11 11 8 0 8 4 0
13 -8 10 -8 16 1 25 16 16 47 -7 57 -43z m1231 4 c0 -18 -2 -19 -15 -9 -8 7
-15 16 -15 21 0 5 7 9 15 9 9 0 15 -9 15 -21z m-910 -8 c0 -10 -19 -26 -42
-34 -27 -9 -22 18 5 31 28 13 37 14 37 3z m878 -16 c2 -10 0 -15 -6 -11 -6 3
-13 2 -17 -4 -9 -14 -25 -12 -25 3 0 17 22 38 35 34 5 -2 12 -12 13 -22z
m-1538 11 c0 -3 -4 -8 -10 -11 -5 -3 -10 -1 -10 4 0 6 5 11 10 11 6 0 10 -2
10 -4z m63 -50 c69 -46 89 -65 82 -77 -4 -6 -22 -7 -43 -3 -20 4 -45 7 -54 6
-10 0 -20 3 -23 9 -4 5 2 9 12 9 13 1 11 5 -9 16 -30 16 -38 27 -13 18 22 -9
18 9 -5 24 -12 7 -18 17 -15 22 9 14 10 14 68 -24z m1412 14 c3 -5 1 -10 -4
-10 -6 0 -11 5 -11 10 0 6 2 10 4 10 3 0 8 -4 11 -10z m-805 -29 c0 -28 -15
-34 -35 -15 -13 14 -14 19 -3 25 22 14 38 10 38 -10z m960 -3 c0 -7 -5 -20
-10 -28 -7 -12 -12 -12 -22 -2 -9 9 -9 12 5 12 9 0 17 7 17 15 0 8 2 15 5 15
3 0 5 -6 5 -12z m-1246 -14 c8 -22 8 -24 -8 -24 -18 0 -29 16 -21 30 9 15 22
12 29 -6z m1396 -3 c5 -11 10 -38 10 -59 0 -39 -1 -40 -39 -44 l-39 -3 14 27
c8 15 22 32 31 37 10 6 12 11 6 11 -15 0 -18 50 -3 50 5 0 14 -9 20 -19z m82
-53 c-8 -8 -9 -4 -5 13 4 13 8 18 11 10 2 -7 -1 -18 -6 -23z m1428 8 c0 -2 -8
-10 -17 -17 -16 -13 -17 -12 -4 4 13 16 21 21 21 13z m-1479 -39 c-10 -9 -11
-8 -5 6 3 10 9 15 12 12 3 -3 0 -11 -7 -18z m49 6 c0 -5 -5 -15 -10 -23 -8
-12 -10 -11 -10 8 0 12 5 22 10 22 6 0 10 -3 10 -7z m-75 -80 c-3 -27 -16 -62
-27 -78 -24 -36 -96 -90 -106 -80 -4 3 1 11 10 16 10 6 15 16 11 25 -3 8 4 28
15 44 27 36 41 87 21 75 -8 -5 -3 4 10 18 14 15 35 27 49 27 23 0 24 -2 17
-47z m-246 -55 c1 -5 -6 -8 -14 -8 -15 0 -21 31 -8 44 7 6 20 -17 22 -36z m-6
-35 c-5 -20 -51 -58 -60 -50 -7 8 39 67 53 67 7 0 10 -8 7 -17z m-1269 -29
c16 -6 24 -64 9 -64 -9 1 -73 57 -73 65 0 7 45 6 64 -1z m1283 -120 c-3 -3
-12 -4 -19 -1 -8 3 -5 6 6 6 11 1 17 -2 13 -5z m-1204 -28 c15 5 34 -12 23
-23 -9 -9 -57 -6 -68 5 -15 15 0 36 17 22 7 -6 19 -8 28 -4z m1203 2 c5 -7 3
-8 -6 -3 -7 4 -16 2 -21 -6 -7 -11 -9 -10 -9 4 0 19 25 23 36 5z m2328 -82
c-3 -9 -18 -19 -33 -22 -14 -3 -34 -8 -43 -11 -33 -8 -18 6 30 31 52 26 55 27
46 2z m-3268 -113 c-9 -9 -27 48 -19 60 4 7 11 -3 16 -22 4 -18 6 -36 3 -38z
m-16 -24 c0 -35 -83 -179 -103 -179 -11 0 12 58 47 114 20 33 36 68 36 79 0
10 5 15 10 12 6 -3 10 -15 10 -26z m341 -3 c-9 -11 -7 -19 14 -40 30 -30 32
-40 5 -31 -11 3 -20 2 -20 -3 0 -6 -11 -9 -25 -8 -24 1 -37 16 -14 16 6 0 9 7
6 15 -4 8 -1 17 5 21 7 5 5 12 -8 22 -18 13 -18 14 4 7 13 -4 22 -2 22 4 0 6
5 11 11 11 8 0 8 -4 0 -14z m-101 -26 c-8 -5 -22 -10 -30 -10 -13 0 -13 1 0
10 8 5 22 10 30 10 13 0 13 -1 0 -10z m-62 -28 c6 -18 -15 -14 -22 4 -4 10 -1
14 6 12 6 -2 14 -10 16 -16z m-51 2 c-3 -3 -12 -4 -19 -1 -8 3 -5 6 6 6 11 1
17 -2 13 -5z m138 -14 c-3 -5 -10 -10 -16 -10 -5 0 -9 5 -9 10 0 6 7 10 16 10
8 0 12 -4 9 -10z m-55 -9 c0 -6 -4 -13 -10 -16 -5 -3 -10 1 -10 9 0 9 5 16 10
16 6 0 10 -4 10 -9z m960 -5 c0 -11 -19 -15 -25 -6 -3 5 1 10 9 10 9 0 16 -2
16 -4z m2044 -15 c10 -10 14 -21 9 -24 -24 -14 -82 -27 -96 -21 -13 5 -11 11
16 35 37 34 48 36 71 10z m-2637 -53 c-3 -8 -6 -5 -6 6 -1 11 2 17 5 13 3 -3
4 -12 1 -19z m2551 -33 c-6 -14 -17 -25 -25 -25 -11 0 -10 5 3 25 9 14 20 25
25 25 5 0 3 -11 -3 -25z m-3263 -23 c-15 -16 -16 -15 -4 12 7 15 15 23 17 16
3 -7 -3 -19 -13 -28z m3245 -31 c0 -30 -11 -51 -26 -51 -17 0 -17 -1 -3 39 12
34 29 42 29 12z m60 5 c0 -2 -8 -10 -17 -17 -16 -13 -17 -12 -4 4 13 16 21 21
21 13z m-1960 -55 c0 -6 -4 -13 -10 -16 -5 -3 -10 1 -10 9 0 9 5 16 10 16 6 0
10 -4 10 -9z m1926 -202 c4 -8 9 -7 15 2 5 8 9 10 9 4 0 -18 -50 -57 -65 -51
-14 5 -14 8 1 31 18 27 29 31 40 14z m-1468 -24 c-3 -3 -9 2 -12 12 -6 14 -5
15 5 6 7 -7 10 -15 7 -18z m1695 -19 c24 -6 27 -10 21 -29 -5 -12 -8 -32 -7
-44 0 -13 -4 -23 -10 -23 -6 0 -8 3 -4 6 3 3 -10 23 -29 44 -32 34 -40 38 -72
33 -21 -2 -50 -9 -67 -14 -21 -7 -27 -7 -19 1 6 6 39 16 73 23 33 6 61 16 61
21 0 4 6 4 13 -1 6 -6 25 -13 40 -17z m57 -35 c-25 -36 -39 -42 -18 -8 8 12
18 28 22 35 5 7 10 11 13 8 3 -3 -5 -19 -17 -35z m-91 -36 c17 -20 31 -41 31
-47 0 -6 -12 5 -27 26 -27 35 -30 37 -76 32 -51 -6 -202 -68 -367 -152 -86
-44 -112 -62 -143 -103 -42 -55 -67 -79 -67 -64 0 6 18 31 41 56 22 26 37 51
34 57 -4 6 -3 10 2 9 4 -2 91 39 193 90 177 88 280 129 326 130 13 1 35 -14
53 -34z m-31 -11 c23 -16 29 -48 12 -59 -13 -8 -42 14 -34 26 7 12 -9 12 -21
0 -6 -5 -35 -17 -65 -26 -30 -10 -90 -36 -132 -57 -43 -22 -83 -38 -89 -36 -6
2 27 24 74 48 47 25 84 46 82 48 -1 2 -53 -20 -114 -47 -61 -28 -116 -51 -123
-50 -32 1 342 167 382 169 3 0 16 -7 28 -16z m-3078 -48 c0 -3 -4 -8 -10 -11
-5 -3 -10 -1 -10 4 0 6 5 11 10 11 6 0 10 -2 10 -4z m133 -12 c60 -8 87 -40
69 -80 -17 -35 -42 -42 -63 -16 -9 12 -28 22 -41 23 -12 0 -41 6 -62 12 -37
12 -39 13 -22 30 10 9 14 17 10 17 -3 0 -1 7 7 16 7 9 21 13 33 10 12 -2 43
-8 69 -12z m2931 -3 c3 -4 -4 -28 -16 -52 -22 -46 -41 -122 -28 -114 4 3 11
20 14 38 3 19 22 56 41 83 41 57 47 52 9 -8 -15 -23 -35 -69 -45 -102 -9 -34
-18 -56 -18 -49 -1 6 -14 14 -31 18 -16 4 -32 10 -34 13 -2 4 11 37 29 75 18
37 31 67 30 67 -23 0 -145 -56 -159 -73 -24 -27 -89 -78 -124 -96 -15 -8 -9 2
19 31 46 48 146 118 169 118 8 0 38 13 65 29 54 31 71 36 79 22z m-4427 -7
c-3 -3 -12 -4 -19 -1 -8 3 -5 6 6 6 11 1 17 -2 13 -5z m957 -20 c35 -11 59
-26 74 -47 12 -17 20 -33 18 -35 -2 -2 -38 12 -80 32 -47 21 -76 41 -76 50 0
20 2 20 64 0z m3775 -98 c-10 -38 -17 -72 -14 -74 3 -3 14 3 25 13 11 10 23
16 26 12 3 -3 -6 -13 -20 -22 -14 -9 -34 -31 -45 -48 l-21 -32 0 30 c0 17 5
48 11 70 11 40 50 127 55 122 1 -1 -6 -33 -17 -71z m-439 49 c0 -2 -10 -9 -22
-15 -22 -11 -22 -10 -4 4 21 17 26 19 26 11z m-1463 -47 c-3 -8 -6 -5 -6 6 -1
11 2 17 5 13 3 -3 4 -12 1 -19z m-1782 -68 c11 -18 -10 -10 -40 16 l-30 25 32
-15 c17 -9 35 -20 38 -26z m87 -31 c20 -6 50 -26 65 -42 l28 -31 -28 17 c-15
10 -32 15 -37 12 -11 -7 -90 43 -90 57 0 5 6 7 13 4 6 -2 29 -10 49 -17z
m3236 9 c6 -7 9 -31 8 -53 -7 -113 -7 -111 -16 -90 -5 11 -9 14 -9 8 -1 -14
-32 -17 -69 -7 -22 6 -21 8 18 41 45 39 44 53 -5 53 l-33 0 26 30 c28 31 62
39 80 18z m-1542 -118 c-4 -44 -2 -114 4 -164 12 -90 8 -119 -10 -72 -12 34
-14 56 -10 220 2 92 5 124 12 111 6 -10 8 -49 4 -95z m1208 60 c-10 -16 -20
-28 -22 -26 -4 5 28 56 35 56 2 0 -4 -13 -13 -30z m-2670 -69 c22 -22 37 -43
35 -46 -3 -2 -30 21 -60 51 -30 31 -45 52 -34 46 11 -6 38 -29 59 -51z m3386
-31 c0 -16 -23 -60 -31 -60 -11 0 -23 66 -14 79 7 13 45 -3 45 -19z m-400 -25
c0 -10 -7 -14 -22 -11 -13 3 -26 5 -30 5 -5 1 -8 6 -8 11 0 6 14 10 30 10 20
0 30 -5 30 -15z m380 -55 c0 -5 -5 -10 -11 -10 -5 0 -7 5 -4 10 3 6 8 10 11
10 2 0 4 -4 4 -10z m-1967 -65 c-3 -9 -8 -14 -10 -11 -3 3 -2 9 2 15 9 16 15
13 8 -4z m1604 -52 c-3 -10 -5 -4 -5 12 0 17 2 24 5 18 2 -7 2 -21 0 -30z
m-1551 -77 c-2 -6 -13 10 -25 37 -12 26 -19 52 -15 59 8 13 47 -79 40 -96z
m1539 3 c-4 -5 -1 -18 7 -27 12 -15 11 -16 -4 -3 -10 7 -24 11 -31 8 -7 -3
-13 2 -13 12 0 11 9 18 24 19 14 1 21 -2 17 -9z m-1881 -30 c29 -27 -34 -22
-69 6 -19 15 -18 16 20 10 22 -4 44 -11 49 -16z m1939 -15 c10 -19 13 -33 7
-29 -14 9 -42 65 -32 65 5 0 16 -16 25 -36z m-53 -29 c16 -19 1 -19 -24 0 -16
12 -17 15 -4 15 8 0 21 -7 28 -15z"/>
<path d="M4810 3350 c-13 -8 -13 -10 2 -10 9 0 20 5 23 10 8 13 -5 13 -25 0z"/>
<path d="M2735 2850 c-3 -5 -2 -10 4 -10 5 0 13 5 16 10 3 6 2 10 -4 10 -5 0
-13 -4 -16 -10z"/>
<path d="M4405 2009 c-4 -6 -5 -12 -2 -15 2 -3 7 2 10 11 7 17 1 20 -8 4z"/>
<path d="M7430 4358 c0 -2 18 -147 40 -322 22 -176 38 -322 35 -324 -3 -3 -5
2 -5 11 0 16 -61 137 -102 205 l-20 33 -32 -24 c-17 -13 -49 -34 -71 -46 l-40
-22 43 6 c23 3 42 3 42 0 0 -7 -93 -51 -125 -59 -26 -7 -26 -8 -10 -26 13 -15
28 -18 67 -15 42 3 51 0 55 -15 4 -15 9 -17 30 -9 32 12 52 12 33 -1 -8 -5
-11 -10 -7 -10 4 0 19 7 32 16 24 16 25 15 25 -5 0 -12 -12 -33 -26 -48 l-25
-25 25 -27 c15 -15 23 -31 19 -36 -5 -4 -3 -5 3 -2 7 4 15 0 18 -9 4 -11 14
-15 32 -11 19 3 24 1 20 -9 -4 -11 1 -13 21 -8 22 6 25 4 20 -10 -4 -9 -3 -15
2 -12 5 3 11 -3 14 -14 4 -16 14 -20 44 -20 l38 0 -32 -20 c-18 -11 -31 -25
-28 -32 11 -36 65 -303 74 -368 15 -107 20 -283 11 -327 -10 -43 -5 -57 8 -22
9 24 9 24 16 -6 3 -16 26 -154 51 -305 58 -351 55 -338 67 -317 5 9 16 17 24
17 14 0 14 -2 0 -16 -9 -8 -16 -23 -16 -32 0 -14 2 -14 9 -3 6 10 9 3 8 -22
-1 -34 -17 -43 -17 -10 0 9 -3 14 -6 11 -10 -11 197 -1242 211 -1253 23 -19
94 -137 115 -191 11 -30 20 -76 19 -102 -1 -45 -1 -46 -10 -15 -12 40 -98 136
-99 110 0 -26 80 -498 86 -509 10 -15 840 -6 855 9 7 7 18 54 25 105 14 103
60 370 99 575 14 73 29 163 34 200 5 37 23 147 41 243 87 485 90 503 69 526
-20 21 -26 39 -10 30 11 -7 51 59 51 85 0 10 4 19 9 19 4 0 11 30 15 67 4 36
25 168 47 292 22 124 48 278 59 341 10 63 30 180 45 260 14 80 35 195 45 255
11 61 26 144 35 185 16 76 34 182 55 320 6 41 22 140 35 220 14 80 30 177 36
216 11 69 12 71 56 94 24 13 53 34 63 47 17 21 20 22 28 7 7 -13 15 -15 38 -7
25 8 30 17 41 69 7 32 12 62 13 67 0 4 -29 7 -64 7 -62 0 -64 -1 -75 -30 -13
-39 -35 -40 -26 -2 l6 29 -113 6 c-62 4 -244 7 -404 7 -228 0 -294 -3 -302
-13 -6 -7 -20 -71 -32 -143 -11 -71 -31 -192 -45 -269 -32 -182 -75 -448 -75
-458 0 -5 27 31 60 80 33 48 69 99 81 113 l21 25 -6 -32 c-3 -18 -4 -33 -2
-33 13 0 167 94 191 117 17 15 33 27 37 25 4 -1 15 12 24 29 8 17 18 28 21 25
3 -3 -12 -35 -33 -71 -37 -62 -43 -68 -119 -104 -44 -21 -95 -44 -112 -51 -40
-15 -117 -96 -109 -115 3 -8 0 -17 -6 -21 -7 -4 -8 -3 -4 4 4 7 5 12 3 12 -2
0 -17 -19 -32 -42 -24 -36 -26 -45 -17 -74 8 -28 7 -32 -8 -29 -14 3 -21 -19
-44 -158 -15 -89 -30 -172 -33 -184 -4 -20 -1 -23 23 -23 16 0 45 -5 64 -10
35 -11 35 -10 112 69 62 64 81 78 99 74 13 -4 20 -2 16 4 -3 5 8 17 26 25 50
24 142 100 185 152 25 31 50 77 66 125 14 42 25 68 26 59 0 -9 3 -25 6 -35 5
-15 4 -16 -6 -3 -10 13 -11 11 -7 -8 3 -14 1 -20 -6 -15 -6 4 -8 0 -4 -10 3
-8 -1 -21 -9 -27 -8 -7 -14 -23 -14 -35 0 -23 -64 -115 -80 -115 -5 0 -33 -19
-62 -43 -29 -24 -73 -57 -98 -74 -25 -17 -73 -56 -106 -87 -34 -30 -65 -52
-69 -48 -5 4 -5 2 -2 -4 4 -7 0 -17 -8 -24 -12 -10 -27 -10 -75 0 -73 15 -86
11 -92 -32 -8 -63 -110 -633 -115 -648 -8 -22 -16 17 -53 255 -18 116 -41 256
-52 313 l-21 102 -48 27 c-27 14 -49 33 -49 41 0 8 -6 12 -15 9 -18 -7 -30 9
-14 19 7 4 22 -4 35 -19 12 -14 25 -23 28 -20 3 4 6 1 6 -6 0 -7 5 -9 12 -5 7
5 8 3 3 -6 -6 -10 -4 -12 9 -7 10 4 15 3 11 -3 -3 -6 -1 -10 6 -10 8 0 10 14
6 48 -23 179 -31 235 -58 381 -30 165 -43 206 -59 196 -4 -3 -13 9 -19 27 -16
45 -14 47 14 13 20 -25 24 -27 25 -11 0 42 -115 740 -126 757 -4 8 -764 14
-764 7z m170 -400 c0 -26 47 -255 55 -268 2 -3 8 -42 14 -86 11 -88 72 -261
129 -364 44 -81 77 -122 210 -263 61 -65 140 -162 183 -228 l77 -114 16 -158
c9 -94 22 -169 31 -188 29 -54 10 -53 -24 2 -31 49 -35 64 -42 164 -5 61 -11
128 -14 150 -9 62 -132 242 -250 365 -165 172 -193 214 -262 395 -67 173 -85
231 -109 341 -26 123 -43 319 -25 294 6 -8 11 -27 11 -42z m1787 -85 c30 -38
73 -134 73 -160 0 -29 20 0 21 30 0 18 3 26 6 18 3 -7 0 -69 -6 -138 -12 -128
-48 -262 -91 -340 -23 -43 -17 -8 7 40 20 40 64 241 65 300 1 76 -49 192 -102
235 -42 35 -58 82 -21 63 10 -6 32 -28 48 -48z m-1424 -40 c25 -43 59 -91 76
-107 17 -16 28 -33 25 -38 -3 -5 -1 -7 4 -6 5 2 38 -15 73 -38 35 -23 79 -49
97 -58 18 -9 38 -25 45 -36 6 -11 15 -20 20 -20 4 0 5 5 1 12 -4 7 -3 8 4 4 7
-4 12 -14 12 -21 0 -12 -5 -12 -25 -3 -13 6 -23 15 -22 21 1 5 -4 12 -12 15
-9 3 -11 0 -6 -8 6 -9 3 -9 -14 -1 -25 14 -28 22 -3 15 14 -5 14 -3 -2 10 -22
18 -40 21 -31 6 10 -16 2 -13 -82 33 -74 39 -119 79 -190 171 -21 26 -25 27
-51 17 -72 -30 -139 -130 -165 -248 l-14 -58 -8 45 c-11 63 -7 87 24 155 31
66 95 143 155 187 21 15 40 28 42 28 1 0 22 -35 47 -77z m1377 -295 c0 -20
-29 -105 -29 -88 -1 8 3 29 8 47 7 26 7 31 -5 26 -8 -3 -11 -10 -7 -16 3 -6 1
-7 -5 -3 -7 4 -17 4 -23 0 -8 -4 -7 -9 2 -15 10 -6 8 -9 -8 -9 -13 0 -44 -16
-69 -35 -46 -35 -104 -69 -104 -62 0 3 19 17 42 32 23 15 63 47 88 71 57 54
110 78 110 52z m-1452 -89 c26 -12 74 -42 107 -67 65 -48 84 -58 215 -107 94
-35 109 -55 59 -76 -42 -17 -86 -17 -139 1 -32 10 -46 23 -61 51 -23 47 -23
49 -2 49 15 0 15 2 3 14 -26 25 -112 66 -138 66 -21 0 -23 -3 -17 -22 3 -13 8
-34 10 -46 2 -13 7 -27 11 -30 4 -4 4 1 1 11 -4 11 -3 16 4 12 5 -4 7 -14 4
-24 -3 -11 4 -26 20 -41 14 -13 25 -20 25 -15 0 5 11 -2 25 -15 13 -12 22 -27
19 -31 -6 -11 98 -77 166 -106 30 -12 47 -23 37 -23 -44 0 -201 96 -272 167
-48 49 -118 168 -131 226 -7 33 -6 33 54 6z m1279 -111 c-25 -62 -125 -108
-186 -87 -18 6 -30 16 -28 23 6 19 160 96 195 96 l32 0 -13 -32z m-827 -288
c-8 -5 -26 -9 -40 -9 l-25 1 25 8 c14 4 32 8 40 9 13 1 13 0 0 -9z m-240
-1317 c7 -27 20 -56 28 -66 8 -9 12 -20 9 -23 -12 -12 -35 22 -41 62 -11 63
-26 76 -19 16 5 -46 1 -63 -28 -125 -18 -40 -43 -110 -55 -157 -25 -94 -32
-90 -9 5 7 34 16 90 19 125 8 91 15 122 32 141 17 19 19 33 2 23 -13 -8 -3 12
20 38 20 24 27 17 42 -39z m810 -62 c0 -4 11 -25 25 -45 27 -40 29 -53 40
-288 4 -73 2 -118 -4 -118 -5 0 -13 15 -16 33 -10 43 -73 206 -92 235 -8 13
-12 30 -9 37 3 8 1 17 -3 20 -5 3 -7 14 -4 25 3 11 9 17 14 14 5 -3 6 2 3 10
-3 9 3 19 16 26 16 9 21 18 17 36 -2 13 0 24 4 24 5 0 9 -4 9 -9z m-396 -58
c19 -21 33 -40 31 -42 -2 -2 -15 10 -29 25 -14 16 -26 24 -26 18 0 -5 14 -23
30 -39 36 -35 36 -46 -10 -203 -30 -100 -41 -110 -15 -12 8 30 11 58 6 63 -14
14 -18 -2 -36 -157 -18 -161 -33 -225 -34 -146 -2 86 -46 384 -65 430 -4 10
12 28 52 57 31 24 58 43 59 43 2 0 18 -17 37 -37z m474 -50 c1 -32 4 -89 6
-128 4 -58 3 -62 -3 -25 -7 38 -15 178 -12 203 3 21 6 1 9 -50z"/>
<path d="M7875 3870 c-6 -10 15 -50 27 -50 4 0 5 7 2 15 -4 8 -11 15 -16 15
-6 0 -5 6 2 15 8 9 9 15 2 15 -6 0 -13 -4 -17 -10z"/>
<path d="M8026 3698 c3 -5 10 -6 15 -3 13 9 11 12 -6 12 -8 0 -12 -4 -9 -9z"/>
<path d="M8090 3652 c0 -5 21 -19 47 -33 71 -36 74 -35 15 5 -57 38 -62 41
-62 28z"/>
<path d="M8000 3200 c6 -11 16 -20 22 -20 6 0 3 9 -7 20 -10 11 -20 20 -22 20
-2 0 1 -9 7 -20z"/>
<path d="M11340 3566 c0 -438 3 -797 8 -797 33 -6 51 -5 46 2 -3 5 11 9 31 9
22 0 38 6 41 15 4 8 16 15 28 15 17 0 18 -2 6 -10 -12 -8 -9 -10 12 -10 18 0
31 -8 39 -22 10 -19 9 -20 -7 -13 -23 9 -124 13 -124 4 0 -12 90 -41 132 -43
40 -2 42 -4 44 -38 3 -30 0 -37 -19 -42 -36 -9 -43 -6 -23 9 10 8 23 12 27 9
5 -3 9 0 9 5 0 6 -9 11 -20 11 -14 0 -18 5 -13 18 6 15 5 15 -9 2 -51 -48 -60
-52 -84 -40 -13 7 -25 19 -28 27 -6 16 18 46 28 36 3 -4 6 -2 6 4 0 6 -23 13
-50 17 -28 4 -57 9 -65 12 -13 5 -15 -24 -15 -221 0 -177 3 -226 13 -222 6 2
11 11 9 19 -3 18 24 32 34 17 7 -13 -24 -49 -43 -49 -11 0 -13 -72 -14 -402
-3 -1133 1 -1782 10 -1787 15 -9 1298 -7 1308 2 10 11 10 828 -1 845 -5 9 -61
12 -199 12 -106 0 -236 3 -289 7 l-98 6 0 107 c0 59 -2 109 -5 112 -3 3 -5
554 -5 1226 0 784 -4 1223 -10 1227 -6 3 -7 -1 -4 -9 3 -9 1 -16 -5 -16 -6 0
-8 -8 -4 -17 6 -16 5 -16 -8 -3 -26 25 -28 58 -8 98 10 20 19 33 19 27 1 -5 5
-1 10 10 14 33 12 603 -3 612 -6 4 -168 9 -359 11 l-348 4 0 -796z m474 221
c-6 -27 -4 -29 15 -24 13 3 21 0 21 -8 0 -12 -29 -25 -56 -25 -8 0 -10 21 -8
65 2 38 0 65 -6 65 -6 0 -10 12 -10 28 0 24 3 22 26 -22 18 -36 23 -57 18 -79z
m-61 14 c2 -10 1 -25 -4 -32 -6 -10 -9 -4 -9 19 0 36 5 42 13 13z m-148 -41
c3 -5 1 -10 -4 -10 -6 0 -11 5 -11 10 0 6 2 10 4 10 3 0 8 -4 11 -10z m-148
-956 c-3 -3 -12 -4 -19 -1 -8 3 -5 6 6 6 11 1 17 -2 13 -5z m278 -111 c-45
-70 -45 -70 -42 -35 1 21 6 31 15 27 6 -2 12 0 12 6 0 6 -8 9 -17 7 -14 -2
-19 -16 -23 -53 -4 -40 -15 -64 -54 -116 -26 -37 -64 -76 -84 -87 -21 -12 -50
-33 -67 -48 -29 -26 -29 -26 -2 -10 15 9 27 13 27 9 0 -8 -54 -44 -75 -51 -5
-2 -2 2 9 9 15 9 16 13 5 20 -12 8 -11 12 4 23 9 7 17 19 17 25 0 7 -8 11 -17
9 -10 -2 -17 -11 -15 -19 1 -9 -3 -7 -13 5 -19 25 -19 36 2 61 16 21 16 21 -3
-32 -5 -12 -4 -15 3 -8 6 6 25 49 44 98 33 86 49 107 49 65 0 -20 1 -21 20 -3
32 29 34 10 3 -26 -18 -21 -30 -47 -31 -68 -2 -19 -8 -41 -15 -49 -10 -13 -9
-14 8 -5 11 6 27 8 35 6 13 -4 13 -3 0 6 -8 5 -11 13 -7 17 3 4 13 2 20 -5 18
-14 40 9 31 32 -3 9 1 24 10 32 8 9 20 34 26 56 17 62 60 117 95 122 17 2 34
5 39 5 4 1 0 -10 -9 -25z m-258 -76 c-2 -7 -12 -36 -22 -64 -11 -29 -22 -53
-26 -53 -4 0 1 23 12 50 25 67 24 71 -19 98 -21 13 -44 33 -51 44 -8 13 8 6
49 -22 34 -23 60 -47 57 -53z m430 -149 c-2 -7 4 -28 15 -46 24 -39 15 -57
-12 -24 -10 12 -21 22 -25 22 -4 0 -2 -7 5 -15 17 -20 5 -32 -15 -15 -20 17
-19 26 6 61 21 30 34 38 26 17z m-367 -52 c0 -2 -7 -7 -16 -10 -8 -3 -12 -2
-9 4 6 10 25 14 25 6z m336 -41 c23 -17 38 -19 28 -3 -4 7 -3 8 5 4 6 -4 9
-11 6 -16 -3 -5 5 -16 17 -24 20 -14 23 -14 31 0 8 13 11 12 21 -8 26 -50 27
-59 6 -48 -11 6 -19 16 -17 22 1 7 -5 12 -13 13 -15 0 -120 63 -120 71 0 8 17
3 36 -11z m-456 -5 c0 -5 -4 -10 -10 -10 -5 0 -10 5 -10 10 0 6 5 10 10 10 6
0 10 -4 10 -10z m535 -10 c3 -5 1 -10 -4 -10 -6 0 -11 5 -11 10 0 6 2 10 4 10
3 0 8 -4 11 -10z m-25 -1090 c0 -5 3 -9 8 -9 18 3 32 -2 32 -12 0 -6 -5 -7
-12 -2 -13 8 -18 9 -38 12 -5 0 -10 6 -10 11 0 6 5 10 10 10 6 0 10 -4 10 -10z
m-64 -217 c-10 -10 -19 5 -10 18 6 11 8 11 12 0 2 -7 1 -15 -2 -18z m48 -35
c-8 -13 10 -9 26 5 11 9 11 8 0 -7 -8 -11 -13 -29 -12 -40 4 -20 3 -20 -17 3
-14 16 -18 28 -12 34 5 5 7 17 4 26 -4 13 -3 14 5 1 6 -8 8 -18 6 -22z m-29
-26 c-9 -9 -25 11 -25 31 1 21 1 21 15 -3 7 -14 12 -27 10 -28z m-60 -822 c3
-5 2 -10 -4 -10 -5 0 -13 5 -16 10 -3 6 -2 10 4 10 5 0 13 -4 16 -10z"/>
<path d="M5620 3969 c0 -250 4 -379 10 -369 5 8 7 23 4 32 -5 16 -3 16 23 3
15 -8 39 -15 53 -14 l25 0 -22 11 c-31 15 -29 30 2 22 20 -5 32 0 55 24 15 17
31 28 34 25 2 -3 14 1 25 9 12 8 18 18 14 21 -3 4 -11 -1 -18 -10 -11 -14 -12
-12 -11 14 1 23 5 29 16 25 13 -5 13 -3 2 11 -22 26 -4 41 25 21 24 -15 26
-15 20 0 -6 14 -3 16 14 11 14 -5 19 -3 15 3 -4 6 2 8 15 5 18 -5 20 -3 15 15
-5 15 -2 22 13 27 12 3 25 3 31 0 5 -3 10 1 10 10 0 9 5 13 10 10 6 -3 10 1
10 9 0 9 5 16 10 16 6 0 10 9 10 20 0 11 6 23 13 25 6 2 26 10 42 16 17 7 33
12 38 11 4 -1 7 5 7 13 0 14 12 19 33 16 4 0 7 3 7 9 0 5 -5 10 -11 10 -5 0
-7 5 -4 10 4 6 21 9 38 7 24 -2 38 3 59 25 15 15 31 28 35 27 5 -1 14 -1 21 0
11 1 62 100 103 204 l19 47 -164 0 c-89 0 -271 3 -404 7 l-242 6 0 -384z m690
167 c0 -3 -4 -8 -10 -11 -5 -3 -10 -1 -10 4 0 6 5 11 10 11 6 0 10 -2 10 -4z
m-24 -28 c4 -7 3 -8 -5 -4 -6 4 -20 2 -29 -6 -15 -12 -16 -11 -3 5 16 20 27
22 37 5z m-68 -48 c-7 -10 -14 -17 -17 -15 -4 4 18 35 25 35 2 0 -1 -9 -8 -20z"/>
<path d="M6412 4252 c-18 -48 -40 -102 -48 -121 -12 -27 -13 -32 -2 -23 8 6
25 8 38 5 19 -5 22 -3 17 10 -6 17 4 23 17 10 4 -4 27 -6 52 -4 31 2 44 -1 40
-8 -10 -16 29 -14 42 2 15 18 63 21 56 3 -3 -8 3 -12 18 -11 13 1 25 -1 28 -5
3 -4 15 -10 28 -14 18 -6 22 -4 22 15 0 19 -2 20 -17 8 -15 -13 -15 -12 -4 6
10 17 7 32 -18 94 -48 116 -36 107 19 -13 28 -60 55 -115 60 -121 5 -7 29 -17
52 -24 59 -18 129 -50 151 -69 26 -23 142 -22 182 2 39 23 76 79 78 119 2 26
-6 38 -58 80 -33 26 -105 71 -160 98 l-100 49 -230 0 -230 0 -33 -88z"/>
<path d="M9987 4333 c-4 -3 -7 -26 -7 -51 0 -37 3 -43 17 -38 9 4 37 10 60 13
49 7 48 6 58 51 l7 32 -65 0 c-35 0 -67 -3 -70 -7z"/>
<path d="M10150 4305 c0 -27 4 -36 14 -32 7 3 34 9 60 12 51 8 55 3 35 -54 -8
-23 -15 -29 -22 -22 -6 6 -15 11 -19 11 -12 0 -10 -94 6 -275 17 -194 19 -299
5 -270 -8 17 -9 17 -4 -5 2 -14 5 -34 5 -45 1 -17 3 -16 15 6 16 30 16 22 11
259 -3 162 -2 172 11 130 7 -25 19 -117 25 -205 10 -142 10 -167 -4 -210 -11
-34 -12 -44 -4 -32 17 23 24 22 29 -5 3 -17 5 -15 6 9 1 35 21 57 21 24 0 -12
5 -21 11 -21 6 0 9 9 6 20 -5 21 32 98 57 119 21 18 66 -3 67 -31 1 -21 1 -22
7 -3 4 11 12 29 19 40 9 16 14 18 24 8 7 -7 17 -13 21 -13 4 0 9 64 10 143 l2
142 3 -139 c2 -77 -1 -152 -6 -167 -7 -21 -5 -30 10 -43 10 -8 19 -23 19 -31
0 -8 5 -15 10 -15 6 0 4 12 -4 28 -23 44 -10 582 14 597 5 3 6 -30 4 -72 -16
-247 -5 -583 17 -525 14 38 21 25 17 -35 -2 -39 1 -57 10 -61 7 -2 12 0 11 5
-1 4 -1 10 0 13 1 3 3 26 5 52 3 32 0 46 -7 41 -16 -10 -1 139 16 152 9 7 13
33 13 83 0 51 4 76 14 82 9 5 14 34 16 92 2 45 1 75 -2 66 -12 -40 -30 -14
-25 35 1 9 -2 17 -8 17 -12 0 -31 58 -28 85 2 18 -3 20 -43 17 -61 -4 -89 -20
-105 -59 -8 -18 -19 -33 -25 -33 -6 0 -5 -11 5 -30 17 -33 21 -65 5 -40 -7 10
-10 -29 -10 -120 0 -74 4 -141 9 -148 14 -22 21 22 23 153 1 74 3 95 5 55 2
-35 7 -67 11 -70 4 -3 5 -59 2 -125 -4 -77 -7 -100 -9 -65 l-4 55 -7 -40 c-7
-37 -7 -37 -10 -10 -2 30 -2 29 -15 -10 -13 -39 -14 -36 -16 70 -2 61 -4 178
-5 260 0 83 -3 156 -5 163 -3 11 14 14 79 14 66 0 87 4 105 19 22 18 20 19
-108 16 l-130 -2 3 -25 c1 -14 7 -26 12 -28 6 -2 10 -19 10 -38 0 -20 5 -56
11 -81 14 -52 -1 -161 -27 -197 -10 -14 -14 -49 -14 -116 0 -78 -4 -99 -20
-120 l-19 -25 4 100 4 100 -14 -95 c-7 -52 -14 -111 -14 -131 -1 -27 -7 -41
-24 -52 l-24 -15 10 51 c5 29 11 160 12 292 2 216 10 316 30 368 4 9 3 17 -3
17 -15 0 -22 -26 -34 -120 -13 -104 -13 -93 -5 -270 5 -101 4 -138 -3 -122 -5
13 -13 95 -17 183 -3 87 -10 159 -15 159 -4 0 -6 -26 -3 -57 l4 -58 -14 55
c-15 55 -13 74 20 185 2 6 4 -1 4 -15 1 -14 -3 -40 -8 -57 -5 -18 -6 -35 -3
-37 4 -2 14 30 23 73 l15 77 -83 3 -83 2 0 -36z m422 -70 c4 -17 1 -25 -8 -25
-8 0 -14 11 -14 25 0 14 4 25 9 25 5 0 11 -11 13 -25z m-42 -86 c0 -6 -4 -7
-10 -4 -5 3 -10 11 -10 16 0 6 5 7 10 4 6 -3 10 -11 10 -16z m140 -141 c-15
-170 -30 -209 -23 -58 3 63 10 123 14 132 5 9 9 29 9 44 0 15 3 25 6 21 3 -3
0 -65 -6 -139z m-93 60 c-2 -13 -4 -3 -4 22 0 25 2 35 4 23 2 -13 2 -33 0 -45z
m-108 -233 c0 -45 -15 -85 -33 -85 -12 0 -6 191 6 213 12 20 13 18 19 -28 4
-27 7 -72 8 -100z m38 73 c-3 -8 -6 -5 -6 6 -1 11 2 17 5 13 3 -3 4 -12 1 -19z"/>
<path d="M10380 4324 c0 -8 5 -12 10 -9 6 3 10 10 10 16 0 5 -4 9 -10 9 -5 0
-10 -7 -10 -16z"/>
<path d="M10770 4332 c0 -21 58 -61 98 -68 32 -5 47 -13 54 -30 9 -18 19 -24
42 -23 l31 1 -34 9 c-49 15 -31 22 33 14 38 -5 56 -12 60 -24 3 -11 4 -10 4 4
-1 11 2 27 6 37 4 9 6 31 4 50 l-3 33 -147 3 c-82 1 -148 -1 -148 -6z"/>
<path d="M10355 4186 c-5 -65 -3 -115 3 -133 8 -22 11 1 11 105 1 72 -1 132
-3 132 -2 0 -7 -47 -11 -104z"/>
<path d="M10410 4125 c0 -65 2 -116 5 -113 7 7 8 219 1 226 -3 3 -6 -48 -6
-113z"/>
<path d="M10146 4194 c-8 -21 -8 -24 3 -24 5 0 11 9 14 20 6 24 -8 27 -17 4z"/>
<path d="M10955 4190 c-3 -6 1 -7 9 -4 18 7 21 14 7 14 -6 0 -13 -4 -16 -10z"/>
<path d="M9966 4172 c-2 -4 2 -16 10 -26 7 -11 15 -18 17 -15 1 2 11 14 21 27
l19 22 -31 0 c-17 0 -33 -3 -36 -8z"/>
<path d="M10082 4095 c0 -61 2 -72 8 -46 4 18 4 54 0 80 -7 41 -8 37 -8 -34z"/>
<path d="M11052 4145 c0 -16 2 -22 5 -12 2 9 2 23 0 30 -3 6 -5 -1 -5 -18z"/>
<path d="M10778 4058 c0 -35 0 -74 1 -88 1 -19 -1 -22 -8 -11 -7 10 -11 -18
-14 -90 -2 -57 -6 -154 -8 -216 -5 -111 0 -132 28 -115 11 7 25 201 27 357 1
44 6 89 13 100 9 16 8 28 -3 54 -8 18 -14 42 -14 52 0 11 -4 19 -10 19 -5 0
-11 -28 -12 -62z m-1 -160 c-3 -8 -6 -5 -6 6 -1 11 2 17 5 13 3 -3 4 -12 1
-19z"/>
<path d="M10000 4075 c-31 -42 -39 -43 -46 -5 -9 41 -21 38 -44 -12 -17 -39
-25 -38 -21 2 1 11 -3 10 -14 -4 -15 -20 -21 -61 -7 -52 4 2 8 -4 8 -15 0 -10
-4 -19 -8 -19 -4 0 -8 7 -8 15 0 8 -4 15 -10 15 -5 0 -10 -5 -10 -11 0 -5 -4
-7 -10 -4 -5 3 -10 -1 -10 -9 0 -9 7 -16 15 -16 8 0 15 -8 15 -18 0 -23 -29
-64 -40 -57 -5 3 -11 1 -14 -4 -3 -5 0 -11 8 -14 9 -4 16 -26 20 -59 9 -89 15
-210 10 -205 -2 2 -11 44 -19 92 -8 49 -18 91 -22 94 -5 3 -10 22 -12 41 -2
19 -6 37 -11 40 -4 3 -9 11 -11 19 -3 8 -21 -11 -43 -45 -37 -56 -38 -59 -33
-128 3 -43 21 -121 45 -196 22 -69 42 -143 45 -165 8 -70 72 -270 131 -409 16
-39 11 -55 -17 -56 -5 0 -5 -4 -2 -10 3 -5 0 -7 -8 -4 -9 3 -16 -3 -20 -15 -3
-14 -1 -18 9 -14 8 3 21 0 29 -7 9 -8 15 -8 15 -2 0 6 -5 12 -10 14 -7 2 -5
11 4 23 15 19 17 18 66 -37 55 -62 141 -115 233 -144 45 -14 62 -25 74 -47 17
-34 5 -77 -22 -77 -8 0 -22 -11 -31 -25 -9 -14 -21 -25 -26 -25 -11 0 -65 -42
-105 -81 -30 -29 -47 -115 -37 -192 4 -34 7 -66 5 -71 -1 -4 -2 -37 -2 -72 -1
-36 -5 -64 -11 -64 -5 0 -25 7 -44 16 -37 18 -58 10 -69 -26 -17 -53 -107 -3
-120 67 -6 33 -3 40 19 60 25 21 27 22 45 5 12 -11 15 -21 8 -29 -6 -9 -1 -16
17 -24 14 -7 26 -17 26 -22 0 -5 8 -3 17 4 14 12 16 12 8 0 -5 -10 -4 -12 3
-7 7 4 12 13 12 20 0 7 11 19 25 26 14 7 25 17 26 22 4 31 2 55 -6 68 -5 9 -4
15 3 18 15 5 16 38 2 47 -15 9 -12 27 3 19 6 -4 1 5 -12 19 -19 21 -27 24 -38
16 -10 -9 -13 -7 -13 10 0 11 6 21 14 21 8 0 13 11 12 30 -1 30 -10 38 -21 20
-3 -5 -10 -10 -16 -10 -5 0 1 10 14 23 12 12 26 21 31 19 4 -1 15 5 23 15 13
16 14 15 9 -12 l-6 -30 15 28 c9 15 14 31 11 35 -2 4 2 15 9 25 8 12 15 14 20
7 4 -7 13 -5 28 5 24 17 57 20 57 5 0 -5 7 -7 15 -4 17 7 34 60 27 86 -5 20
-32 33 -32 15 -1 -8 -5 -7 -13 3 -16 21 -68 53 -74 47 -2 -3 -13 2 -23 11 -48
44 -50 44 -44 14 4 -19 1 -32 -9 -41 -13 -10 -15 -9 -10 8 3 12 1 21 -6 21 -6
0 -11 -8 -11 -17 0 -15 -2 -14 -15 3 -8 10 -15 14 -15 9 0 -6 -9 -16 -21 -23
-23 -15 -24 -17 19 52 20 32 21 38 7 32 -12 -4 -16 -2 -12 8 3 8 -5 18 -19 25
-33 15 -61 14 -67 -1 -3 -7 -6 -3 -6 10 -1 24 -16 30 -25 10 -3 -7 -4 -4 -3 7
1 15 -4 20 -22 20 -19 0 -24 -6 -27 -28 -2 -21 1 -27 11 -23 8 3 17 1 20 -3 2
-5 -4 -11 -15 -14 -14 -4 -18 -10 -13 -23 4 -12 3 -15 -5 -10 -17 10 -15 -16
4 -42 8 -12 11 -22 5 -22 -5 0 -13 9 -16 20 -6 17 -13 22 -35 22 -3 0 -14 9
-24 19 -17 17 -18 19 -3 19 9 0 17 -4 17 -10 0 -11 32 -1 42 14 13 18 9 29 -5
17 -8 -6 -18 -7 -22 -3 -5 4 -5 1 -1 -5 4 -7 2 -13 -3 -13 -6 0 -11 10 -11 23
0 17 -2 19 -10 7 -5 -8 -11 -12 -14 -9 -8 7 5 49 15 49 5 0 5 8 2 17 -7 17 -6
17 45 -4 6 -3 12 -1 12 4 0 13 -49 35 -61 28 -5 -4 -9 -1 -9 4 0 6 -4 11 -9
11 -15 0 -13 -210 2 -229 9 -11 9 -13 0 -8 -9 6 -12 -22 -12 -113 0 -106 2
-120 17 -120 15 -1 15 -2 2 -13 -18 -15 -23 -46 -12 -76 8 -21 10 -22 24 -7
19 18 38 21 38 5 0 -6 -9 -13 -20 -16 -11 -3 -20 -10 -20 -15 0 -6 -7 -8 -15
-4 -13 5 -15 -37 -15 -342 1 -303 2 -344 15 -327 8 11 20 27 28 35 8 8 20 26
27 39 7 13 23 34 36 46 26 24 31 36 13 33 -21 -5 -20 20 0 27 22 7 29 25 9 25
-6 0 -8 3 -4 7 4 5 11 8 14 8 4 0 24 14 44 30 30 24 38 37 38 63 0 31 -6 36
-47 35 -7 -1 -11 3 -8 7 3 4 -5 10 -16 13 -12 3 -18 10 -14 17 5 8 11 8 21 -1
8 -7 14 -7 14 -1 0 12 -29 24 -41 16 -5 -3 -9 -1 -9 5 0 6 -6 8 -14 5 -11 -4
-13 0 -9 15 3 13 1 21 -8 21 -10 0 -10 3 -1 12 15 15 15 29 0 26 -6 -2 -14 6
-16 17 -4 17 -2 18 12 6 14 -12 16 -12 10 3 -3 9 -11 16 -18 17 -6 0 0 5 13
10 l24 9 -23 25 -23 24 33 -9 c41 -12 47 -17 32 -32 -40 -40 28 -168 89 -168
10 0 30 13 45 29 28 30 28 30 58 13 17 -9 32 -18 34 -19 8 -3 -54 -110 -96
-164 -72 -94 -92 -122 -92 -136 0 -6 -18 -33 -40 -58 -22 -25 -40 -52 -40 -58
0 -7 -11 -24 -24 -40 -43 -50 -74 -233 -52 -314 18 -66 26 -79 37 -62 7 11 9
11 9 -2 0 -9 7 -22 16 -30 23 -19 64 34 62 81 0 19 -2 27 -5 18 -2 -10 -9 -18
-14 -18 -15 0 -10 46 6 60 8 7 15 21 15 33 0 22 93 152 114 160 28 11 71 -61
67 -113 -1 -19 -11 -75 -21 -125 -11 -49 -20 -105 -20 -125 l0 -36 -67 1 c-44
0 -81 7 -103 18 -35 18 -35 18 -15 -1 24 -24 110 -53 130 -45 8 3 15 1 15 -5
0 -15 -81 -44 -128 -45 -22 -1 -38 -5 -36 -9 2 -4 0 -9 -5 -12 -16 -10 -20 48
-6 77 13 25 12 32 -2 55 -31 51 -56 73 -65 60 -4 -7 -8 -221 -8 -475 0 -434 1
-463 18 -463 16 -1 16 -1 0 -11 -15 -8 -16 -13 -5 -29 9 -16 9 -24 0 -40 -7
-10 -10 -26 -7 -35 6 -13 81 -15 698 -13 l691 3 0 100 c0 79 -3 99 -14 97 -10
-2 -12 4 -7 25 4 15 9 49 11 75 4 38 2 46 -10 42 -8 -4 -13 -10 -10 -15 3 -4
-3 -12 -13 -18 -15 -8 -18 -22 -17 -85 0 -42 -3 -76 -7 -76 -5 0 -8 27 -8 61
0 33 -5 70 -12 82 -17 30 -38 89 -38 106 0 11 4 9 15 -5 14 -18 15 -18 8 0 -5
16 -2 18 20 14 29 -6 37 6 11 16 -8 3 -12 10 -9 16 3 5 0 7 -8 4 -8 -3 -18 0
-23 7 -4 8 -3 10 4 5 7 -4 12 -2 12 3 0 18 24 12 38 -9 7 -11 17 -20 23 -20 5
0 7 5 4 10 -3 6 1 10 9 10 14 0 16 26 16 203 l0 204 -112 6 c-62 4 -200 7
-305 7 l-193 0 0 36 c0 43 -29 97 -48 89 -10 -4 -12 2 -8 23 3 15 2 34 -4 42
-5 8 -10 11 -10 6 0 -5 -6 -3 -14 3 -11 9 -15 8 -20 -4 -3 -9 -10 -13 -16 -10
-5 3 -10 3 -11 -2 0 -4 -3 -19 -6 -33 -3 -14 -6 -48 -7 -77 0 -29 -4 -49 -8
-45 -13 13 -16 69 -7 114 5 24 11 57 14 73 6 42 38 135 46 135 4 0 10 -17 14
-37 7 -39 19 -69 61 -158 l23 -50 1 107 c0 88 -3 110 -17 124 -17 17 -17 18 0
11 15 -5 17 0 17 39 0 30 -5 46 -15 50 -8 4 -15 11 -15 17 0 6 -7 19 -17 29
-9 10 -11 18 -5 18 6 0 20 -12 31 -26 26 -33 29 -11 6 43 -17 41 -19 53 -6 53
5 0 12 -10 14 -22 3 -13 5 16 5 65 0 48 -1 87 -2 87 -13 0 -114 -35 -123 -42
-9 -7 -13 -7 -13 1 0 6 9 16 20 23 11 7 20 18 20 25 0 7 21 19 47 26 26 8 49
19 51 25 2 8 -3 10 -15 6 -35 -11 52 57 117 91 l65 35 -46 -45 -47 -44 77 0
c86 0 79 -7 120 109 10 30 42 103 70 162 52 109 58 128 42 128 -6 0 -6 13 1
31 l11 32 19 -24 c10 -13 27 -40 38 -61 11 -20 37 -57 59 -82 29 -33 42 -59
47 -93 5 -27 8 -50 7 -53 0 -3 -3 -17 -7 -32 -5 -21 -3 -28 8 -28 8 0 16 -10
18 -22 2 -13 3 64 3 170 0 130 -4 195 -11 200 -6 4 -18 21 -27 37 -9 17 -30
43 -47 59 -17 16 -46 52 -64 80 -31 48 -92 111 -126 131 -11 6 -10 3 3 -12 9
-11 14 -23 10 -26 -3 -4 -2 -7 3 -7 6 0 19 -7 30 -15 18 -14 18 -14 -3 -8 -12
3 -34 20 -48 39 -14 19 -32 34 -40 34 -18 0 -77 59 -70 70 3 5 0 12 -6 15 -5
4 -8 13 -6 19 8 21 -11 41 -38 41 -23 1 -25 -2 -19 -28 6 -27 5 -28 -15 -15
-12 7 -21 16 -21 21 0 4 5 5 12 1 7 -4 8 -3 4 4 -13 21 -73 14 -90 -10 -18
-25 -21 -17 -6 13 8 15 7 19 -3 19 -18 0 -27 31 -27 95 0 30 -7 60 -16 73 -9
13 -13 26 -9 30 3 3 10 0 15 -8 7 -11 10 -9 10 12 l0 27 -62 -23 c-88 -32
-128 -39 -128 -21 0 7 -5 17 -11 21 -8 4 -9 0 -4 -15 5 -18 2 -21 -19 -21 -20
0 -26 5 -26 23 0 30 -44 165 -58 179 -17 17 -16 109 1 105 6 -1 15 -6 19 -12
4 -6 8 -2 8 8 0 9 -5 17 -12 17 -8 0 -9 3 -2 10 11 11 -2 78 -25 130 -17 38
-61 114 -72 125 -13 12 -1 -65 12 -79 5 -6 9 -21 9 -35 0 -24 0 -24 -15 -5 -8
10 -18 37 -21 59 -6 31 -9 35 -15 20 -6 -18 -8 -17 -18 9 -15 37 -39 55 -71
56 -20 0 -25 5 -26 28 -1 31 -29 136 -41 155 -4 6 -9 21 -10 32 -6 37 25 -18
63 -112 19 -49 42 -95 51 -103 18 -17 19 -23 -19 74 -10 27 -17 55 -14 63 3 8
1 11 -4 8 -6 -3 -10 0 -10 9 0 8 -3 23 -6 33 -5 15 -4 16 6 3 9 -12 10 0 4 50
-3 36 -10 70 -14 75 -4 6 -10 29 -14 53 -5 32 -3 42 8 42 9 0 20 -28 32 -82
10 -46 20 -75 22 -65 2 9 8 14 14 10 8 -4 9 0 4 13 -13 34 -28 114 -23 127 10
30 49 -112 52 -193 4 -91 19 -181 35 -208 8 -15 9 -15 9 3 0 11 -6 47 -14 80
-8 33 -12 74 -9 90 7 40 -31 200 -56 235 -21 29 -29 106 -10 95 6 -3 10 -18
10 -32 0 -14 7 -39 15 -56 8 -18 22 -50 30 -72 l15 -40 -5 45 c-3 24 -9 47
-13 50 -10 6 -44 151 -38 157 11 11 26 -11 26 -38 0 -19 5 -29 15 -29 17 0 21
50 5 66 -12 12 -2 47 11 38 5 -3 9 6 9 20 0 14 -1 26 -2 26 -2 0 -14 -16 -28
-35z m-76 -194 c-11 -12 -24 27 -23 69 l1 45 14 -55 c7 -30 11 -57 8 -59z
m-46 -109 c12 -34 7 -62 -10 -62 -5 0 -7 8 -4 18 3 9 1 34 -4 56 -10 44 2 37
18 -12z m-35 -349 c9 -24 15 -43 12 -43 -6 0 -35 69 -35 83 0 15 5 7 23 -40z
m47 -17 c0 -5 -7 -1 -15 10 -8 10 -14 24 -14 29 0 6 6 1 14 -9 8 -11 15 -24
15 -30z m57 8 c1 -16 0 -23 -3 -16 -4 7 -18 18 -33 24 -24 10 -25 11 -6 18 30
13 40 7 42 -26z m-17 -24 c6 -11 8 -20 6 -20 -3 0 -10 9 -16 20 -6 11 -8 20
-6 20 3 0 10 -9 16 -20z m-56 -36 c3 -8 2 -12 -4 -9 -6 3 -10 10 -10 16 0 14
7 11 14 -7z m89 -185 c-17 -17 -37 -1 -22 17 8 10 15 12 23 4 7 -7 7 -13 -1
-21z m436 -335 c17 -48 8 -53 -18 -9 -25 42 -25 45 -8 45 7 0 19 -16 26 -36z
m-29 -26 c7 -24 18 -49 23 -55 5 -8 6 -13 0 -13 -10 0 -62 108 -55 115 9 9 19
-5 32 -47z m-50 4 c0 -15 -2 -15 -10 -2 -13 20 -13 33 0 25 6 -3 10 -14 10
-23z m-40 8 c0 -5 -7 -10 -16 -10 -8 0 -12 5 -9 10 3 6 10 10 16 10 5 0 9 -4
9 -10z m-364 -103 c14 5 20 -12 6 -21 -10 -6 -43 20 -35 28 4 4 9 3 11 -3 2
-5 10 -7 18 -4z m-31 -27 c3 -5 1 -10 -4 -10 -6 0 -11 5 -11 10 0 6 2 10 4 10
3 0 8 -4 11 -10z m-165 -10 c0 -5 -4 -10 -10 -10 -5 0 -10 5 -10 10 0 6 5 10
10 10 6 0 10 -4 10 -10z m19 -49 c-3 -6 -10 -7 -18 -2 -7 5 -10 14 -6 21 9 14
29 -2 24 -19z m81 9 c0 -5 -4 -10 -10 -10 -5 0 -10 5 -10 10 0 6 5 10 10 10 6
0 10 -4 10 -10z m221 -53 c8 -18 20 -31 27 -29 8 1 11 -2 7 -8 -3 -6 -11 -8
-16 -5 -5 4 -9 1 -9 -5 0 -6 -5 -8 -11 -5 -6 4 -8 13 -5 20 2 7 -6 23 -20 36
-29 27 -31 39 -5 32 10 -2 24 -19 32 -36z m-231 -7 c0 -5 -4 -10 -10 -10 -5 0
-10 5 -10 10 0 6 5 10 10 10 6 0 10 -4 10 -10z m350 -4 c0 -3 -4 -8 -10 -11
-5 -3 -10 -1 -10 4 0 6 5 11 10 11 6 0 10 -2 10 -4z m-146 -27 c-8 -14 -24
-10 -24 6 0 9 6 12 15 9 8 -4 12 -10 9 -15z m522 -8 c-3 -4 6 -6 19 -3 42 8
28 -15 -27 -45 -29 -15 -51 -31 -48 -34 3 -3 -2 -14 -10 -25 -8 -10 8 -2 36
18 29 20 65 43 82 52 29 15 30 14 36 -7 4 -15 -1 -27 -17 -40 l-22 -18 24 6
c34 10 17 -16 -36 -54 -24 -17 -43 -35 -43 -40 0 -5 -15 -18 -32 -30 -18 -11
-28 -21 -23 -21 14 0 58 30 68 47 4 7 13 13 19 13 7 0 25 12 40 27 20 19 31
24 39 16 7 -7 -8 -23 -53 -54 -87 -60 -100 -69 -120 -75 -10 -4 -18 -13 -18
-20 0 -8 -8 -17 -17 -21 -10 -3 -37 -21 -60 -40 -62 -50 -107 -20 -45 31 47
40 123 97 156 117 17 10 26 19 20 19 -13 0 -123 -70 -176 -112 -36 -28 -52
-27 -25 2 10 12 9 12 -5 1 -22 -17 -44 -5 -27 15 7 8 50 44 96 80 45 36 83 67
83 70 0 8 -56 -32 -124 -88 -32 -27 -61 -47 -63 -44 -6 6 77 86 89 86 5 0 6 5
2 11 -3 6 -14 9 -24 6 -17 -4 -18 1 -15 60 2 36 8 70 14 76 8 8 11 5 11 -9 0
-11 -5 -25 -12 -32 -9 -9 -9 -12 0 -12 8 0 9 -7 2 -26 -16 -41 -12 -47 16 -25
27 22 60 29 49 11 -10 -17 19 -11 45 10 14 10 21 22 17 26 -4 4 -13 2 -19 -4
-17 -17 -33 -15 -18 3 17 21 1 19 -37 -5 -37 -22 -37 -22 -23 15 9 24 22 32
96 59 39 14 87 19 80 7z m-696 -5 c0 -3 -4 -8 -10 -11 -5 -3 -10 -1 -10 4 0 6
5 11 10 11 6 0 10 -2 10 -4z m848 -49 c6 3 12 0 12 -6 0 -6 11 -35 25 -64 23
-48 23 -50 3 -27 l-21 25 6 -25 c5 -22 5 -23 -7 -8 -7 10 -15 15 -18 12 -4 -3
-9 0 -14 7 -4 8 -3 10 4 5 16 -10 15 -1 -7 42 -10 20 -22 48 -25 62 l-8 25 19
-26 c10 -14 24 -24 31 -22z m-794 8 c-6 -16 -24 -21 -24 -7 0 11 11 22 21 22
5 0 6 -7 3 -15z m861 -27 c4 -18 14 -44 23 -58 14 -23 14 -24 -1 -12 -18 15
-50 102 -37 102 5 0 11 -15 15 -32z m-1031 1 c-3 -5 -10 -7 -15 -3 -5 3 -7 10
-3 15 3 5 10 7 15 3 5 -3 7 -10 3 -15z m136 -40 c0 -5 -7 -9 -15 -9 -8 0 -15
7 -15 15 0 9 6 12 15 9 8 -4 15 -10 15 -15z m67 -5 c-3 -3 -12 -4 -19 -1 -8 3
-5 6 6 6 11 1 17 -2 13 -5z m-187 -45 c0 -6 -4 -7 -10 -4 -5 3 -10 11 -10 16
0 6 5 7 10 4 6 -3 10 -11 10 -16z m916 -34 c-19 -15 -19 -15 -1 -15 25 0 11
-14 -38 -39 -27 -14 -37 -15 -37 -6 0 23 -37 5 -95 -46 -72 -63 -82 -63 -19 1
27 27 52 50 56 50 3 0 30 16 59 35 30 19 63 35 74 35 20 -1 20 -1 1 -15z
m-642 -86 c-3 -5 -10 -7 -15 -3 -5 3 -7 10 -3 15 3 5 10 7 15 3 5 -3 7 -10 3
-15z m531 -9 c3 -6 18 -7 32 -4 36 9 24 -6 -31 -41 -46 -29 -65 -56 -25 -35
19 11 20 10 9 -10 -8 -15 -18 -20 -32 -17 -31 9 -125 -47 -127 -75 -1 -5 -2
-7 -4 -5 -4 3 -111 -85 -115 -96 -5 -11 -22 2 -22 17 0 7 38 42 85 76 46 35
82 67 80 71 -7 10 45 53 83 68 18 8 33 23 36 37 7 25 20 31 31 14z m460 -34
c17 -13 28 -26 25 -29 -3 -3 -25 13 -50 35 -47 42 -28 38 25 -6z m-735 17 c0
-8 -43 -67 -54 -75 -22 -15 -17 2 8 32 27 32 35 57 14 44 -7 -4 -8 -3 -4 4 6
10 36 6 36 -5z m740 -64 c17 -30 -4 -22 -28 11 -13 16 -27 29 -33 27 -6 -1
-18 9 -27 21 -14 21 -11 20 31 -8 26 -17 52 -40 57 -51z m-697 -15 c3 -3 -3
-15 -14 -27 -10 -11 -19 -27 -19 -35 0 -17 -38 -72 -50 -72 -15 0 12 75 36 99
13 13 24 28 24 32 0 10 14 12 23 3z m158 -81 c-5 -10 -26 -34 -47 -53 -36 -33
-35 -32 7 17 47 56 55 63 40 36z m-61 -28 c-7 -8 -17 -15 -22 -15 -6 0 -5 7 2
15 7 8 17 15 22 15 6 0 5 -7 -2 -15z m109 -22 l-24 -27 40 22 40 22 -30 -25
c-16 -14 -35 -23 -41 -21 -7 3 -22 -7 -35 -21 -21 -22 -21 -25 -5 -19 16 6 17
4 6 -9 -7 -9 -19 -14 -27 -11 -7 3 -26 -7 -41 -22 -15 -15 -19 -20 -7 -11 44
35 48 30 10 -13 -22 -25 -44 -45 -50 -45 -18 2 -55 -14 -55 -24 0 -5 -7 -9
-15 -9 -8 0 -15 4 -15 9 0 14 253 231 269 231 2 0 -6 -12 -20 -27z m32 -90
c-5 -10 -44 -54 -86 -98 -42 -44 -73 -73 -69 -64 8 15 155 177 162 178 1 1 -2
-7 -7 -16z m-21 -77 c0 -2 -8 -10 -17 -17 -16 -13 -17 -12 -4 4 13 16 21 21
21 13z m-750 -47 c0 -5 -7 -9 -15 -9 -15 0 -20 12 -9 23 8 8 24 -1 24 -14z
m183 -49 c-16 -41 -33 -53 -33 -24 0 12 37 63 47 64 1 0 -6 -18 -14 -40z m302
30 c-3 -5 -12 -10 -18 -10 -7 0 -6 4 3 10 19 12 23 12 15 0z m-371 -62 c-4
-24 -7 -74 -6 -113 2 -74 -28 -182 -54 -192 -7 -2 -15 -22 -19 -44 -4 -21 -10
-39 -15 -39 -4 0 -13 -17 -19 -37 -10 -37 -10 -37 -5 12 3 28 10 52 15 55 4 3
11 25 15 48 4 23 10 42 14 42 3 0 16 19 28 43 17 34 21 59 20 132 -1 53 3 99
11 113 18 34 24 27 15 -20z m206 -5 c-5 -16 -19 -61 -31 -101 -12 -40 -26 -75
-32 -79 -6 -4 -8 0 -4 10 3 9 -5 31 -19 52 -13 20 -24 39 -24 42 0 9 102 103
111 103 4 0 3 -12 -1 -27z m307 -79 c-3 -3 -12 -4 -19 -1 -8 3 -5 6 6 6 11 1
17 -2 13 -5z m-37 -34 c-8 -5 -23 -7 -32 -4 -11 3 -18 0 -18 -7 0 -7 -3 -10
-6 -6 -13 12 9 27 39 27 24 0 28 -3 17 -10z m-370 -35 c0 -5 -5 -3 -10 5 -5 8
-10 20 -10 25 0 6 5 3 10 -5 5 -8 10 -19 10 -25z m-10 -30 c14 -19 14 -19 -2
-6 -10 7 -18 18 -18 24 0 6 1 8 3 6 1 -2 9 -13 17 -24z m-169 -2 c-5 -10 -21
-29 -35 -42 l-26 -24 0 26 c0 14 5 29 11 33 8 4 9 -1 4 -17 -7 -21 -4 -20 19
9 31 35 42 42 27 15z m550 -80 c13 -16 12 -17 -3 -4 -10 7 -18 15 -18 17 0 8
8 3 21 -13z m29 -113 c0 -5 -2 -10 -4 -10 -3 0 -8 5 -11 10 -3 6 -1 10 4 10 6
0 11 -4 11 -10z m-279 -74 l-5 -31 -7 34 c-8 40 0 77 11 46 3 -9 4 -32 1 -49z
m43 45 c8 -12 -3 -41 -15 -41 -5 0 -9 11 -9 25 0 25 14 34 24 16z m81 -141
c-10 -11 -20 -18 -23 -15 -7 6 18 35 31 35 5 0 2 -9 -8 -20z m-6 -66 c13 -37
10 -51 -9 -39 -6 4 -9 14 -6 22 3 8 1 23 -4 34 -6 10 -7 19 -2 19 4 0 14 -16
21 -36z m-215 -60 c9 -3 16 -14 16 -23 0 -13 2 -14 9 -2 8 12 12 13 25 1 14
-11 16 -10 10 4 -8 20 9 21 26 1 7 -8 17 -12 22 -8 6 3 9 0 6 -8 -3 -8 -21
-15 -42 -16 -29 -2 -44 4 -68 27 -31 30 -32 35 -4 24z m212 -36 c1 -13 -5 -31
-14 -41 -14 -16 -16 -15 -33 13 -20 33 -17 57 9 63 22 5 35 -7 38 -35z m-303
6 c3 -4 -1 -17 -10 -30 -9 -15 -11 -24 -4 -24 6 0 11 -4 11 -10 0 -5 -18 -10
-40 -10 -22 0 -40 -4 -40 -8 0 -12 -30 -9 -55 5 -18 11 -18 12 10 18 48 10 78
25 93 46 14 20 24 24 35 13z m-123 -34 c0 -5 -5 -10 -11 -10 -5 0 -7 5 -4 10
3 6 8 10 11 10 2 0 4 -4 4 -10z m455 -63 l0 -72 -18 34 c-17 30 -17 39 -6 73
7 21 15 38 18 38 3 0 6 -33 6 -73z m-231 48 c14 -11 16 -15 5 -15 -8 0 -23 7
-33 15 -14 11 -16 15 -5 15 8 0 23 -7 33 -15z m281 -4 c3 -5 1 -12 -5 -16 -5
-3 -10 1 -10 9 0 18 6 21 15 7z m-135 -38 c18 -23 23 -25 31 -13 9 13 10 13 7
1 -7 -25 -22 -22 -58 9 -25 21 -30 29 -18 30 9 0 26 -12 38 -27z m-48 -12 c18
-16 31 -32 28 -34 -3 -3 -22 10 -42 29 -21 19 -33 34 -28 34 5 0 24 -13 42
-29z m-193 4 c18 -5 22 -4 16 5 -5 9 -4 11 4 6 6 -4 9 -11 6 -16 -9 -14 23
-32 52 -28 21 2 27 8 25 23 -2 16 -1 17 7 5 9 -13 11 -12 12 5 1 18 2 18 6 2
5 -19 -22 -57 -41 -57 -19 0 -135 54 -136 64 0 4 6 6 13 3 6 -2 23 -8 36 -12z
m85 -1 c5 -14 4 -15 -9 -4 -17 14 -19 20 -6 20 5 0 12 -7 15 -16z m-102 -23
c31 -12 58 -27 61 -34 5 -15 -7 -114 -15 -123 -4 -3 -10 15 -13 40 -6 36 -16
55 -47 84 -21 20 -46 37 -55 37 -9 0 -18 5 -20 12 -5 15 15 11 89 -16z m253
-71 c-28 -12 -47 -12 -40 0 3 6 18 10 33 9 24 0 25 -1 7 -9z m-117 -35 c-3 -3
-9 2 -12 12 -6 14 -5 15 5 6 7 -7 10 -15 7 -18z m227 -41 c8 -20 15 -39 15
-42 0 -12 -27 33 -34 56 -12 35 2 26 19 -14z m-86 -3 c0 -23 -1 -24 -8 -6 -7
18 -9 17 -20 -10 -9 -24 -10 -25 -6 -5 2 14 5 30 5 36 0 6 7 11 15 11 10 0 15
-10 14 -26z m815 -78 c4 -9 2 -11 -7 -6 -6 4 -16 8 -22 8 -5 1 -9 6 -7 13 1 7
-2 12 -7 12 -5 0 -11 7 -15 15 -4 11 3 9 24 -6 16 -12 31 -28 34 -36z m-870
16 c14 -11 26 -25 26 -31 0 -7 -11 -1 -24 11 -14 13 -29 20 -35 16 -6 -3 -11
1 -11 9 0 21 12 20 44 -5z m841 -30 c32 -28 38 -49 15 -49 -13 0 -60 53 -60
67 0 19 5 16 45 -18z m-760 11 c3 -5 1 -10 -4 -10 -6 0 -11 5 -11 10 0 6 2 10
4 10 3 0 8 -4 11 -10z m-180 -48 c11 -3 29 -12 40 -20 l20 -14 -20 6 c-11 4
-37 13 -57 19 -21 7 -38 16 -38 21 0 4 8 5 18 1 9 -4 26 -10 37 -13z m900 -20
c-3 -3 -16 5 -28 17 l-22 23 28 -17 c15 -10 25 -20 22 -23z m-710 9 c3 -5 -8
-9 -25 -9 -16 1 -30 5 -30 10 0 11 47 10 55 -1z m-149 -76 c10 -8 15 -14 9
-14 -5 0 -19 6 -29 14 -11 8 -15 15 -10 15 6 0 19 -7 30 -15z m-99 -102 c-4
-3 -18 6 -32 21 -28 31 -32 41 -10 33 8 -4 18 -1 22 6 5 8 11 0 17 -21 5 -18
6 -35 3 -39z m973 -68 c0 -10 -49 -83 -60 -90 -25 -15 -20 5 12 48 29 41 48
57 48 42z m10 -37 c0 -19 -18 -43 -25 -36 -4 3 -2 16 5 27 12 24 20 27 20 9z
m-85 -18 c-3 -5 -12 -10 -18 -10 -7 0 -6 4 3 10 19 12 23 12 15 0z m73 -62
c-3 -7 -13 -15 -24 -17 -16 -3 -17 -1 -5 13 16 19 34 21 29 4z m0 -62 c-8 -6
-12 -18 -10 -28 2 -9 -1 -19 -7 -22 -10 -7 -12 22 -5 62 4 20 7 22 20 11 13
-11 14 -15 2 -23z m-48 -1 c-7 -9 -15 -13 -18 -10 -3 2 1 11 8 20 7 9 15 13
18 10 3 -2 -1 -11 -8 -20z m10 -29 c0 -3 -4 -8 -10 -11 -5 -3 -10 -1 -10 4 0
6 5 11 10 11 6 0 10 -2 10 -4z"/>
<path d="M10142 4085 c0 -16 2 -22 5 -12 2 9 2 23 0 30 -3 6 -5 -1 -5 -18z"/>
<path d="M10172 4090 c0 -14 2 -19 5 -12 2 6 2 18 0 25 -3 6 -5 1 -5 -13z"/>
<path d="M7260 4080 c0 -13 -8 -32 -17 -43 -18 -19 -18 -20 14 -3 42 21 46 30
23 51 -19 18 -20 17 -20 -5z"/>
<path d="M10178 4025 c4 -25 -20 -89 -38 -100 -6 -3 -10 -18 -10 -33 l0 -26
18 24 c34 50 55 141 33 154 -4 3 -6 -6 -3 -19z"/>
<path d="M7264 4016 c-17 -12 -47 -35 -68 -52 l-37 -31 33 -1 c18 0 39 4 46
10 10 9 15 9 21 0 6 -9 19 -7 54 8 26 12 47 23 47 26 0 14 -43 64 -53 63 -7 0
-26 -11 -43 -23z"/>
<path d="M7130 3953 c-25 -15 -46 -30 -48 -34 -2 -4 -13 -5 -25 -2 -17 4 -16
1 6 -11 23 -12 33 -13 50 -4 20 10 20 12 3 18 -15 5 -10 10 23 25 23 10 44 22
47 27 9 15 -10 8 -56 -19z"/>
<path d="M10078 3947 c-3 -19 -2 -25 4 -19 6 6 8 18 6 28 -3 14 -5 12 -10 -9z"/>
<path d="M10036 3922 c-4 -13 -3 -28 2 -35 12 -16 23 -58 32 -132 28 -211 55
-345 76 -372 13 -17 13 -17 14 2 0 12 -12 65 -26 120 -14 54 -32 151 -41 214
-20 154 -17 140 -42 206 -8 19 -8 19 -15 -3z"/>
<path d="M10844 3892 c-1 -20 -6 -77 -12 -127 -16 -133 -19 -228 -7 -232 13
-4 35 130 36 222 0 39 4 91 8 117 5 29 4 45 -2 41 -5 -3 -12 -1 -16 6 -4 6 -7
-6 -7 -27z"/>
<path d="M6485 3910 c-3 -4 -14 -6 -24 -3 -26 7 -62 -14 -59 -34 2 -12 -7 -19
-30 -24 -40 -8 -44 -12 -37 -32 6 -14 40 -31 58 -28 4 1 7 -7 7 -17 0 -10 4
-22 9 -27 17 -17 42 -85 32 -85 -6 0 -19 19 -29 43 -10 23 -25 47 -33 54 -12
10 -14 4 -15 -35 0 -26 1 -39 3 -29 3 9 8 17 13 17 4 0 6 -10 2 -22 -4 -17 -2
-20 11 -15 11 4 14 2 10 -9 -3 -7 -1 -14 3 -14 5 0 10 -15 11 -33 2 -20 -1
-27 -6 -19 -6 10 -10 8 -14 -8 -4 -16 -2 -20 9 -16 8 3 14 1 14 -4 0 -5 -25
-14 -56 -20 -41 -9 -57 -17 -63 -33 -5 -12 -7 -26 -4 -30 3 -4 -1 -15 -8 -23
-10 -12 -9 -13 7 -8 18 7 18 7 1 -14 -18 -20 -18 -21 2 -32 12 -6 21 -17 21
-26 0 -8 8 -18 18 -22 9 -4 17 -13 17 -21 0 -59 82 40 91 110 4 30 12 49 19
49 25 0 45 -12 45 -27 0 -8 -4 -11 -10 -8 -5 3 -10 2 -10 -4 0 -5 5 -13 10
-16 6 -3 9 -14 9 -23 -1 -15 -2 -15 -6 1 -4 17 -22 24 -24 10 -7 -61 -3 -86
16 -93 30 -13 82 -50 69 -50 -6 0 -22 8 -35 19 -38 29 -65 34 -83 15 -16 -15
-16 -17 4 -31 14 -10 20 -22 16 -35 -2 -11 2 -31 10 -43 14 -22 14 -23 -13
-29 -27 -6 -119 -84 -110 -93 3 -2 20 5 38 16 47 29 57 27 55 -11 -1 -31 1
-33 37 -36 21 -2 44 2 51 8 8 5 21 8 30 4 12 -4 15 -2 11 9 -8 20 21 30 48 15
l21 -11 -23 -8 c-25 -10 -24 -32 2 -37 19 -4 77 19 77 30 0 13 59 5 64 -9 3
-7 1 -13 -5 -13 -5 0 -22 -11 -37 -25 -15 -14 -38 -28 -52 -32 -14 -4 -45 -15
-70 -26 -26 -12 -61 -19 -84 -18 -25 2 -36 -1 -32 -8 4 -6 2 -11 -4 -11 -7 0
-9 -12 -5 -32 3 -18 7 -56 9 -83 7 -80 18 -126 29 -122 6 2 12 10 15 18 3 11
1 11 -8 -1 -10 -13 -11 -13 -7 0 2 8 8 15 13 15 6 0 30 15 54 34 l45 34 -41
-39 c-23 -21 -47 -55 -54 -75 -8 -23 -23 -40 -42 -48 -37 -17 -143 -121 -153
-150 -4 -12 -9 -20 -12 -17 -10 10 -33 -15 -33 -35 0 -12 -6 -17 -20 -14 -25
5 -76 -37 -82 -68 -3 -14 3 -33 13 -46 l19 -23 26 29 26 28 -21 -29 c-17 -24
-20 -37 -14 -86 3 -36 2 -60 -5 -64 -12 -7 -26 29 -17 44 10 16 -25 72 -41 66
-8 -3 -14 1 -14 9 0 9 -8 12 -26 9 -18 -3 -23 -1 -18 8 4 6 -7 2 -24 -10 -42
-31 -182 -189 -182 -206 0 -8 12 -24 28 -35 l27 -21 -29 6 c-22 5 -27 4 -21
-6 4 -7 8 -26 7 -41 0 -19 5 -30 19 -34 26 -9 15 -25 -13 -17 -16 4 -20 2 -16
-9 3 -8 0 -23 -8 -34 -8 -10 -14 -28 -14 -39 0 -34 47 -124 67 -130 10 -3 37
-27 58 -53 l40 -48 -40 24 c-48 28 -119 100 -141 144 -23 44 -36 54 -62 50
-69 -10 -102 -106 -64 -185 12 -24 24 -62 28 -84 4 -29 13 -45 28 -52 17 -9
18 -11 3 -11 -18 -1 -18 -2 15 -65 13 -25 13 -32 1 -57 -14 -28 -13 -30 35
-79 52 -53 94 -147 71 -161 -15 -9 -12 -117 5 -234 12 -76 14 -83 15 -41 1 27
4 46 9 42 6 -6 11 -336 5 -336 -1 0 -7 35 -15 78 -7 42 -14 66 -16 53 -3 -19
-6 -21 -13 -10 -7 11 -9 8 -9 -9 0 -12 -7 -25 -15 -28 -11 -5 -12 -11 -5 -24
14 -27 12 -56 -5 -74 -8 -8 -15 -26 -15 -40 0 -14 -4 -26 -10 -26 -5 0 -10 -4
-10 -10 0 -5 11 -10 25 -10 17 0 25 6 25 17 0 9 3 13 7 9 9 -9 10 -156 1 -156
-4 0 -10 17 -13 38 -10 56 -15 72 -26 72 -5 0 -9 -7 -9 -15 0 -8 -4 -15 -10
-15 -5 0 -15 -27 -22 -60 -6 -33 -16 -60 -21 -60 -4 0 -5 5 -2 10 3 6 1 10 -4
10 -11 0 -14 -24 -11 -96 1 -26 -4 -45 -14 -53 -9 -8 -16 -19 -16 -26 0 -8 -6
-16 -12 -18 -7 -3 146 -6 340 -6 l352 -1 0 538 c-1 826 -1 847 8 836 5 -5 19
-38 31 -74 13 -36 29 -74 35 -85 7 -11 16 -33 20 -50 4 -16 16 -56 28 -87 l20
-57 25 47 c14 26 28 49 32 52 4 3 12 21 18 40 l11 35 1 -30 c0 -16 -7 -48 -15
-70 -8 -22 -16 -46 -18 -54 -1 -7 -10 -17 -19 -23 -25 -13 -22 -31 28 -163 25
-66 47 -125 49 -132 3 -7 25 -3 72 13 37 14 74 24 82 22 8 -2 -19 -16 -62 -32
-42 -16 -76 -32 -76 -36 0 -14 22 -70 28 -70 3 0 13 7 23 16 16 15 132 44 174
44 17 0 15 -3 -10 -20 -32 -21 -23 -26 20 -10 18 7 25 15 21 26 -3 8 -2 12 4
9 16 -10 26 29 25 108 0 42 3 77 7 77 12 0 5 23 -10 35 -10 8 -9 20 4 60 10
27 19 44 22 37 4 -14 28 -16 36 -4 3 5 -1 21 -9 36 -11 20 -11 26 -2 23 15 -5
40 28 57 74 12 33 11 41 -9 81 -13 27 -39 58 -66 77 -44 32 -53 52 -36 80 7
11 13 10 33 -3 14 -9 28 -13 31 -9 4 3 7 -3 7 -14 0 -12 7 -23 15 -27 18 -6
18 -2 6 42 -5 17 -6 32 -1 32 5 0 10 10 12 23 2 12 8 21 13 21 16 -2 32 27 43
81 9 43 8 54 -9 81 -23 37 -24 44 -5 44 8 0 18 -9 21 -21 12 -37 22 -8 25 71
l2 45 12 -35 c8 -19 11 -38 9 -42 -2 -5 0 -8 6 -8 6 0 22 15 37 34 30 38 44
117 24 141 -12 14 -3 68 10 60 4 -2 11 -33 15 -67 l7 -63 28 34 c26 30 28 39
23 85 -3 28 -11 60 -18 72 -7 11 -13 36 -13 55 -1 51 -6 66 -33 99 -28 34 -39
37 -39 13 -1 -17 -1 -17 -11 0 -24 41 -27 76 -13 132 11 39 12 61 4 74 -5 11
-10 32 -10 48 0 15 -3 39 -7 52 -6 22 -9 23 -59 18 -52 -5 -74 5 -35 18 32 10
46 32 31 50 -10 12 -16 13 -26 4 -8 -6 -14 -8 -14 -3 0 5 -11 -4 -25 -21 -13
-16 -24 -25 -25 -18 0 6 5 15 10 18 15 9 -9 37 -26 31 -16 -6 -47 22 -39 35 4
5 -5 21 -20 36 -27 30 -28 49 -2 47 14 -1 14 1 2 20 -12 18 -22 75 -41 219 -3
24 -1 37 7 37 7 0 8 7 4 18 -4 9 -9 24 -12 32 -4 13 -4 13 6 0 17 -25 29 1 34
72 l2 28 17 -23 c10 -12 26 -40 37 -63 25 -53 49 -73 62 -53 5 8 9 10 9 5 0
-6 6 -1 14 9 11 16 11 25 -7 64 -11 25 -28 57 -38 70 -14 17 -16 27 -9 36 6 7
7 15 2 17 -5 1 -22 23 -37 48 -16 25 -30 39 -33 32 -5 -17 -22 -15 -22 2 0 8
-14 29 -31 46 l-32 31 6 -33 c3 -18 8 -49 11 -68 l6 -35 -14 35 c-8 19 -15 53
-16 75 -1 37 -2 38 -11 15 -7 -17 -7 -37 0 -62 14 -45 5 -70 -47 -125 l-39
-42 4 52 c2 29 5 66 7 82 2 17 -1 44 -6 60 -5 17 -11 56 -13 88 -3 33 -8 64
-12 70 -4 7 -8 18 -9 25 -2 8 -10 22 -19 32 -15 16 -14 18 7 23 12 4 19 9 15
13 -4 4 -2 13 5 21 17 21 57 -67 59 -134 1 -29 6 -53 10 -53 12 0 21 38 13 52
-6 10 -4 10 8 0 9 -7 14 -21 11 -31 -2 -9 4 -24 13 -32 16 -13 17 -12 10 6 -4
11 -10 49 -12 85 -2 36 -6 76 -9 90 -3 14 11 -6 31 -45 20 -38 42 -73 48 -77
23 -15 26 -7 11 28 -21 50 -19 55 6 17 12 -18 25 -30 31 -27 5 3 3 16 -6 30
-19 28 -20 38 -4 28 7 -5 8 -3 4 5 -5 7 -10 10 -13 7 -3 -3 -21 16 -39 41 -37
53 -76 76 -66 41 5 -19 3 -19 -22 3 -28 24 -66 43 -66 33 0 -3 10 -15 23 -25
l22 -20 -26 16 c-14 8 -33 13 -42 10 -9 -4 -21 3 -31 17 -9 13 -20 21 -24 20
-4 -2 -13 13 -20 35 -7 21 -18 43 -24 48 -7 7 -7 2 1 -12 13 -26 14 -33 2 -33
-5 0 -12 12 -16 28 -7 28 -32 62 -46 62 -5 0 -23 16 -41 35 -32 33 -92 54
-103 35z m-95 -108 c0 -13 -3 -12 -20 3 -11 10 -17 22 -14 27 8 12 34 -11 34
-30z m243 -209 c-7 -2 -19 -2 -25 0 -7 3 -2 5 12 5 14 0 19 -2 13 -5z m-112
-391 c-7 -2 -18 1 -23 6 -8 8 -4 9 13 5 13 -4 18 -8 10 -11z m79 8 c0 -5 -5
-10 -11 -10 -5 0 -7 5 -4 10 3 6 8 10 11 10 2 0 4 -4 4 -10z m15 -48 c-7 -7
-64 22 -59 30 2 4 18 -1 34 -10 16 -9 27 -18 25 -20z m172 -409 c-8 -7 -37 9
-31 19 3 5 12 4 20 -3 8 -6 13 -14 11 -16z m143 -64 c0 -11 -4 -18 -10 -14 -5
3 -7 12 -3 20 7 21 13 19 13 -6z m34 -59 c4 0 5 4 1 9 -13 22 13 18 41 -5 17
-15 22 -23 12 -20 -10 3 -18 1 -18 -4 0 -5 -7 -7 -15 -4 -12 5 -13 -9 -8 -98
5 -87 3 -101 -8 -90 -10 9 -14 40 -14 107 0 81 -2 95 -17 99 -10 2 -18 12 -18
22 0 16 1 16 18 1 10 -10 22 -17 26 -17z m-84 15 c0 -2 -10 -10 -22 -16 -21
-11 -22 -11 -9 4 13 16 31 23 31 12z m-106 -84 c-4 -17 -9 -30 -11 -27 -3 2
-2 19 2 36 9 41 17 33 9 -9z m-54 -83 c0 -5 -13 -2 -30 7 -16 9 -30 17 -30 19
0 3 14 -1 30 -7 17 -6 30 -15 30 -19z m327 5 c-2 -35 -27 -66 -27 -33 0 20 16
60 24 60 2 0 3 -12 3 -27z m-281 -54 c-4 -27 -3 -39 6 -39 6 0 9 -3 6 -6 -14
-13 -22 -3 -33 40 -13 50 -11 58 12 49 11 -5 14 -15 9 -44z m64 18 c0 -5 -4
-5 -10 -2 -5 3 -10 14 -10 23 0 15 2 15 10 2 5 -8 10 -19 10 -23z m181 -67
c26 0 29 -25 8 -67 -11 -22 -15 -39 -9 -41 13 -5 13 -22 1 -22 -12 0 -28 50
-37 110 -5 37 -4 43 7 33 7 -7 21 -13 30 -13z m-236 -89 c-6 -5 -46 -24 -90
-41 -119 -47 -367 -176 -412 -215 -28 -24 -49 -33 -72 -33 -31 1 -31 1 -15 27
27 43 85 82 71 49 -3 -7 -8 -21 -12 -31 -5 -12 22 1 81 38 48 30 92 55 97 55
4 0 5 5 2 10 -4 6 -3 10 2 9 21 -4 34 2 27 13 -5 8 -2 9 9 5 10 -3 17 -2 17 4
0 6 5 7 10 4 6 -3 10 -1 10 5 0 6 4 9 9 6 5 -3 19 3 32 13 13 10 39 26 57 35
18 9 30 21 27 25 -3 5 2 12 11 15 9 3 12 2 9 -5 -7 -11 52 -3 90 12 28 11 51
11 40 0z m45 -5 c0 -3 -4 -8 -10 -11 -5 -3 -10 -1 -10 4 0 6 5 11 10 11 6 0
10 -2 10 -4z m-626 -58 c-4 -7 -30 -46 -57 -86 -27 -41 -46 -76 -43 -79 3 -3
-4 -17 -14 -31 -11 -13 -20 -33 -20 -43 0 -26 -12 -24 -40 6 l-23 25 31 0 c30
0 44 11 48 38 2 13 114 182 121 182 2 0 1 -6 -3 -12z m580 -30 c-27 -11 -97
-37 -157 -59 -59 -21 -126 -48 -148 -60 -23 -11 -43 -18 -46 -15 -3 3 36 25
86 50 56 27 84 46 74 48 -11 2 12 15 52 31 75 29 89 32 81 19 -3 -5 16 -3 42
3 65 17 75 6 16 -17z m164 -85 c12 -18 22 -37 22 -41 -1 -12 -31 31 -51 73
-19 39 -16 37 29 -32z m-744 15 c-11 -67 -15 -79 -24 -73 -6 3 -10 1 -10 -6 0
-7 -3 -9 -6 -6 -4 4 -2 12 3 19 6 7 14 32 18 56 4 23 11 42 16 42 5 0 6 -15 3
-32z m-32 -13 c-2 -14 -8 -23 -12 -20 -5 3 -10 -1 -13 -7 -2 -7 -8 -10 -12 -5
-6 5 30 57 40 57 1 0 0 -11 -3 -25z m769 -50 l10 -20 -16 20 c-9 11 -21 29
-26 40 l-10 20 16 -20 c9 -11 21 -29 26 -40z m-815 -33 c-18 -35 -39 -53 -29
-25 10 27 35 64 40 59 3 -2 -3 -18 -11 -34z m294 23 c0 -2 -10 -9 -22 -15 -22
-11 -22 -10 -4 4 21 17 26 19 26 11z m307 -47 c3 6 11 12 19 12 19 0 19 -59
-1 -66 -8 -4 -13 -10 -10 -14 4 -7 -18 -22 -37 -24 -3 -1 -10 -4 -14 -8 -12
-13 -24 -9 -24 7 0 18 -12 19 -28 3 -8 -8 -10 -4 -8 18 2 16 4 35 5 42 0 6 8
12 17 12 8 0 22 7 31 15 12 13 18 13 31 3 12 -10 16 -10 19 0z m-392 -8 c-3
-5 -12 -10 -18 -10 -7 0 -6 4 3 10 19 12 23 12 15 0z m693 -25 c-3 -3 -9 2
-12 12 -6 14 -5 15 5 6 7 -7 10 -15 7 -18z m-778 5 c0 -5 -16 -17 -35 -26 -19
-9 -35 -21 -35 -26 0 -6 6 -5 15 2 8 6 26 13 42 15 25 2 25 1 9 -10 -10 -8
-24 -11 -32 -8 -10 4 -12 -4 -9 -32 3 -20 8 -41 11 -46 3 -5 1 -9 -4 -9 -6 0
-13 15 -16 33 -6 33 -29 54 -78 68 -33 9 -37 -4 -11 -40 20 -30 27 -90 13
-122 -9 -21 -10 -20 -5 11 3 27 0 22 -14 -20 -17 -48 -20 -52 -25 -30 -3 14
-7 63 -8 110 l-3 85 -20 -55 c-10 -30 -18 -58 -17 -62 1 -4 -6 -4 -15 -1 -12
5 -14 3 -8 -7 6 -9 4 -11 -4 -6 -7 5 -18 0 -27 -10 -31 -40 -1 20 44 87 47 72
55 76 177 98 28 5 51 9 53 10 1 0 2 -3 2 -9z m35 0 c-3 -5 -12 -10 -18 -10 -7
0 -6 4 3 10 19 12 23 12 15 0z m-255 -55 c-7 -8 -20 -15 -29 -15 -13 1 -13 3
3 15 26 19 42 19 26 0z m116 -37 l29 -33 -32 29 c-18 17 -33 31 -33 33 0 8 8
1 36 -29z m912 -46 c4 -44 -15 -41 -20 3 -2 22 0 34 6 32 6 -2 12 -18 14 -35z
m-424 -151 c-5 -6 -33 31 -33 44 -1 6 8 -1 19 -15 10 -14 17 -27 14 -29z m-14
-33 l23 -33 -26 24 c-15 14 -27 28 -27 33 0 14 5 9 30 -24z m240 -28 c-18 -11
-22 -7 -14 14 5 13 10 14 18 6 8 -8 7 -13 -4 -20z m-99 -17 c13 -16 12 -17 -3
-4 -17 13 -22 21 -14 21 2 0 10 -8 17 -17z m-641 -28 c0 -9 -34 -45 -43 -45
-10 0 25 49 36 50 4 0 7 -2 7 -5z m525 -75 c10 -11 16 -20 13 -20 -3 0 -13 9
-23 20 -10 11 -16 20 -13 20 3 0 13 -9 23 -20z m-348 -52 c-3 -8 -6 -5 -6 6
-1 11 2 17 5 13 3 -3 4 -12 1 -19z m-67 -75 c0 -37 -2 -64 -5 -61 -9 9 -24
108 -19 123 12 31 24 1 24 -62z m828 -7 l27 -30 -27 17 c-64 39 -77 49 -82 63
-8 22 47 -12 82 -50z m-341 48 c-3 -4 -2 -15 3 -24 7 -13 6 -20 -5 -24 -10 -4
-15 1 -15 15 0 21 -1 21 -27 5 l-28 -17 28 25 c15 14 33 26 39 26 6 0 8 -3 5
-6z m302 -58 c18 -19 21 -30 15 -65 -6 -37 -8 -39 -19 -24 -7 10 -11 21 -9 25
3 5 0 8 -7 8 -7 0 -10 2 -7 6 3 3 2 21 -2 40 -9 40 -2 43 29 10z m-194 -16 c3
-5 1 -10 -4 -10 -6 0 -11 5 -11 10 0 6 2 10 4 10 3 0 8 -4 11 -10z m130 -12
c4 4 6 0 3 -8 -4 -13 -78 -25 -78 -12 0 14 36 29 51 21 9 -4 20 -5 24 -1z
m-20 -41 c11 -8 14 -16 8 -20 -6 -4 -18 2 -28 13 -21 23 -8 27 20 7z m-658
-79 c-3 -8 -6 -5 -6 6 -1 11 2 17 5 13 3 -3 4 -12 1 -19z m582 -34 c-16 -18
-32 -24 -52 -22 -16 2 -31 -3 -36 -11 -14 -21 -33 -4 -21 19 11 20 40 33 79
35 13 0 29 9 35 18 10 16 11 16 14 1 2 -9 -7 -27 -19 -40z m-861 -104 c0 -30
-2 -49 -5 -42 -2 6 -8 10 -13 7 -5 -3 -7 10 -6 27 2 18 4 62 6 98 l3 65 7 -50
c5 -27 8 -75 8 -105z m269 38 c-3 -8 -6 -5 -6 6 -1 11 2 17 5 13 3 -3 4 -12 1
-19z m663 -141 c0 -2 -9 -12 -20 -22 -24 -21 -27 -14 -4 9 15 15 24 20 24 13z
m-673 -59 c-3 -8 -6 -5 -6 6 -1 11 2 17 5 13 3 -3 4 -12 1 -19z m623 13 c0 -5
-7 -12 -16 -15 -14 -5 -15 -4 -4 9 14 17 20 19 20 6z m-703 -453 c-3 -8 -6 -5
-6 6 -1 11 2 17 5 13 3 -3 4 -12 1 -19z m-115 -10 c-7 -7 -12 -8 -12 -2 0 14
12 26 19 19 2 -3 -1 -11 -7 -17z m129 -93 c-9 -17 -24 53 -15 72 6 14 9 9 14
-22 3 -22 4 -44 1 -50z m-107 30 c16 -24 16 -25 -4 -25 -15 0 -20 7 -20 25 0
14 2 25 4 25 2 0 11 -11 20 -25z m-1 -55 c-3 -12 -8 -19 -11 -16 -5 6 5 36 12
36 2 0 2 -9 -1 -20z m121 -22 c4 -17 2 -28 -4 -28 -5 0 -10 14 -10 32 0 36 4
35 14 -4z m-114 -34 c0 -8 -4 -12 -10 -9 -5 3 -10 10 -10 16 0 5 5 9 10 9 6 0
10 -7 10 -16z m-234 -41 c2 -16 6 -39 9 -53 6 -24 6 -24 -14 -6 -21 19 -21 19
-21 -7 0 -16 -6 -27 -14 -27 -10 0 -11 7 -2 34 6 19 14 32 18 30 4 -3 8 12 8
32 0 42 12 39 16 -3z"/>
<path d="M10152 3865 c0 -16 2 -22 5 -12 2 9 2 23 0 30 -3 6 -5 -1 -5 -18z"/>
<path d="M7170 3860 c-13 -9 -13 -10 0 -9 8 0 24 4 35 9 l20 9 -20 0 c-11 0
-27 -4 -35 -9z"/>
<path d="M10731 3784 c0 -11 3 -14 6 -6 3 7 2 16 -1 19 -3 4 -6 -2 -5 -13z"/>
<path d="M10688 3762 c-7 -47 4 -222 13 -222 12 0 10 238 -1 245 -4 3 -10 -8
-12 -23z"/>
<path d="M7266 3754 c-4 -11 -1 -14 11 -12 9 2 18 9 21 16 6 18 -25 15 -32 -4z"/>
<path d="M9136 3743 c-6 -14 -5 -15 5 -6 7 7 10 15 7 18 -3 3 -9 -2 -12 -12z"/>
<path d="M7380 3719 c-22 -18 -22 -19 -3 -10 12 6 25 16 28 21 9 15 3 12 -25
-11z"/>
<path d="M6185 3685 c-35 -79 -63 -165 -55 -170 5 -3 13 2 18 11 6 10 12 13
16 6 3 -6 -1 -18 -10 -26 -8 -9 -11 -16 -5 -16 13 0 31 33 31 55 0 10 -5 13
-12 9 -10 -6 -10 -4 -3 7 19 26 47 117 42 141 -3 20 -6 18 -22 -17z"/>
<path d="M9941 3664 c-1 -40 24 -142 39 -157 4 -5 11 -3 16 4 4 7 3 14 -2 16
-6 2 -9 18 -7 36 2 25 1 28 -6 12 -10 -23 -10 -22 -29 80 l-10 50 -1 -41z"/>
<path d="M9972 3655 c0 -16 2 -22 5 -12 2 9 2 23 0 30 -3 6 -5 -1 -5 -18z"/>
<path d="M10441 3649 c0 -9 2 -38 6 -65 7 -45 8 -46 13 -19 4 17 3 35 -1 40
-4 6 -9 21 -12 35 -2 14 -5 18 -6 9z"/>
<path d="M10192 3618 c-1 -20 -5 -45 -8 -55 -5 -14 -4 -15 5 -7 7 7 11 29 8
55 -3 42 -4 42 -5 7z"/>
<path d="M10557 3643 c-10 -10 -8 -41 2 -48 5 -3 9 8 9 25 -1 33 -1 33 -11 23z"/>
<path d="M10505 3598 c5 -18 3 -28 -4 -28 -6 0 -11 -7 -11 -15 0 -27 18 -16
25 16 4 19 3 35 -5 42 -9 9 -10 5 -5 -15z"/>
<path d="M5660 3589 c0 -5 -4 -7 -10 -4 -5 3 -10 2 -10 -3 0 -6 7 -12 15 -16
10 -4 15 1 15 14 0 11 -2 20 -5 20 -3 0 -5 -5 -5 -11z"/>
<path d="M5621 3564 c0 -11 3 -14 6 -6 3 7 2 16 -1 19 -3 4 -6 -2 -5 -13z"/>
<path d="M10041 3534 c0 -11 3 -14 6 -6 3 7 2 16 -1 19 -3 4 -6 -2 -5 -13z"/>
<path d="M10367 3544 c-4 -4 -7 -20 -7 -36 0 -16 -11 -44 -25 -62 -14 -18 -25
-38 -25 -44 0 -18 -27 -14 -34 4 -4 9 -9 14 -12 11 -3 -3 -2 -11 2 -19 4 -7 8
-36 7 -65 0 -29 3 -56 8 -59 5 -3 7 -10 3 -15 -6 -11 117 -139 134 -139 8 0
12 27 12 85 0 72 -2 85 -17 85 -15 0 -15 1 0 18 13 15 17 39 17 110 0 61 -4
92 -11 92 -7 0 -9 -11 -6 -26 4 -21 2 -24 -8 -12 -8 7 -17 28 -22 46 -5 18
-12 30 -16 26z m-80 -196 c-3 -8 -6 -5 -6 6 -1 11 2 17 5 13 3 -3 4 -12 1 -19z
m133 9 c0 -2 -15 -14 -32 -27 l-33 -23 24 26 c21 23 41 35 41 24z m-79 -90
c-10 -9 -11 -8 -5 6 3 10 9 15 12 12 3 -3 0 -11 -7 -18z m49 -99 c0 -12 -14
-10 -28 4 -19 19 -14 29 8 16 11 -7 20 -16 20 -20z"/>
<path d="M6174 3475 c-4 -8 -9 -13 -14 -10 -12 7 -46 -38 -48 -63 -1 -28 13
-20 34 20 8 16 18 27 21 24 3 -3 -10 -32 -30 -65 -21 -32 -37 -65 -37 -72 0
-18 46 27 64 65 l16 31 0 -29 c0 -16 -11 -43 -23 -60 -13 -17 -29 -42 -36 -56
-12 -25 -12 -25 13 3 31 33 34 33 46 1 8 -19 5 -34 -10 -64 -24 -48 -25 -57
-3 -39 13 11 17 11 20 2 3 -7 8 -13 12 -13 3 0 3 39 -1 88 -4 48 -8 124 -9
170 -1 81 -4 96 -15 67z"/>
<path d="M6082 3458 c-7 -13 -19 -34 -29 -48 -9 -14 -2 -9 15 10 17 19 31 41
32 48 0 18 -5 15 -18 -10z"/>
<path d="M6326 3292 c-2 -9 -3 -28 -1 -42 2 -14 4 -29 4 -34 1 -4 8 -5 17 -2
14 5 15 4 4 -9 -11 -13 -10 -14 4 -9 9 3 16 10 16 14 0 4 20 16 45 27 49 20
52 24 29 44 -13 10 -17 10 -25 -2 -5 -8 -9 -21 -9 -29 -1 -12 -3 -11 -11 3 -6
10 -8 26 -5 35 5 15 4 15 -7 2 -17 -20 -41 -25 -34 -6 3 8 0 17 -8 20 -8 3
-16 -3 -19 -12z"/>
<path d="M2385 3260 c3 -5 8 -10 11 -10 2 0 4 5 4 10 0 6 -5 10 -11 10 -5 0
-7 -4 -4 -10z"/>
<path d="M6146 3254 c-8 -20 14 -38 28 -24 7 7 5 16 -6 26 -14 14 -16 14 -22
-2z"/>
<path d="M10291 3219 c-1 -9 6 -34 15 -55 15 -34 18 -36 24 -19 5 13 2 27 -10
40 -10 11 -20 27 -23 35 -5 13 -6 12 -6 -1z"/>
<path d="M5620 3190 c0 -19 3 -21 12 -12 9 9 9 15 0 24 -9 9 -12 7 -12 -12z"/>
<path d="M5620 3123 c0 -25 0 -26 20 -8 11 10 20 19 20 20 0 2 -9 5 -20 8 -16
4 -20 0 -20 -20z"/>
<path d="M9790 3141 c0 -5 5 -13 10 -16 6 -3 10 -2 10 4 0 5 -4 13 -10 16 -5
3 -10 2 -10 -4z"/>
<path d="M5660 3115 c-10 -12 -9 -15 7 -15 11 0 20 7 20 15 0 8 -4 15 -7 15
-4 0 -13 -7 -20 -15z"/>
<path d="M9760 3123 c0 -6 7 -16 15 -23 23 -19 18 -27 -13 -22 -18 2 -33 -2
-41 -12 -10 -12 -10 -16 -2 -16 7 0 9 -5 5 -11 -5 -8 -9 -8 -14 1 -4 7 -13 9
-19 6 -13 -8 -11 -146 2 -146 4 0 16 -9 28 -21 17 -17 23 -18 37 -7 10 8 13 9
9 1 -8 -13 2 -21 42 -33 27 -7 29 -6 33 22 6 35 -16 61 -43 53 -10 -4 -19 -2
-19 4 0 5 12 11 27 13 16 2 27 10 29 22 3 23 -6 47 -15 41 -4 -2 -8 9 -8 25 0
16 3 27 7 25 4 -2 7 2 7 10 0 8 -5 13 -11 12 -6 -1 -10 3 -9 9 1 6 -9 22 -22
34 -14 13 -25 19 -25 13z m50 -157 c0 -11 -19 -15 -25 -6 -3 5 1 10 9 10 9 0
16 -2 16 -4z m-80 -46 c0 -5 -4 -10 -10 -10 -5 0 -10 5 -10 10 0 6 5 10 10 10
6 0 10 -4 10 -10z m100 -39 c0 -6 -4 -13 -10 -16 -5 -3 -10 1 -10 9 0 9 5 16
10 16 6 0 10 -4 10 -9z"/>
<path d="M10156 3068 c3 -29 13 -78 22 -108 15 -52 16 -53 22 -25 3 17 -2 53
-12 84 -10 30 -18 62 -18 72 0 10 -4 21 -10 24 -6 4 -7 -14 -4 -47z"/>
<path d="M6150 3074 c-8 -16 -16 -33 -19 -38 -2 -5 1 -6 7 -2 7 4 12 0 13 -11
0 -10 5 -3 10 15 14 49 7 72 -11 36z"/>
<path d="M5620 3032 c0 -53 2 -60 23 -66 55 -15 99 3 72 30 -17 17 -29 18 -19
2 4 -6 3 -8 -4 -5 -5 4 -8 16 -5 27 4 16 0 20 -21 20 -24 0 -26 2 -15 23 6 12
8 19 4 15 -5 -4 -14 -3 -22 3 -11 9 -13 0 -13 -49z"/>
<path d="M6240 3058 c0 -11 -5 -15 -15 -12 -9 4 -15 0 -15 -10 0 -9 -3 -16 -8
-16 -10 0 -45 -66 -47 -89 -1 -13 6 -17 31 -16 17 0 40 7 50 15 16 14 17 13
11 -2 -6 -18 4 -24 17 -10 4 4 11 8 14 8 4 1 17 5 30 9 l23 8 -30 31 c-16 17
-37 47 -45 66 -8 19 -15 27 -16 18z"/>
<path d="M5620 2863 c0 -49 3 -93 7 -96 4 -4 18 4 33 18 15 15 46 29 74 34 49
9 86 31 53 31 -11 0 -14 5 -10 17 5 12 2 15 -9 10 -13 -4 -16 -1 -12 18 3 19
-1 25 -26 30 -16 4 -35 3 -41 -1 -8 -4 -9 -3 -5 4 4 7 1 12 -6 12 -7 0 -23 3
-35 6 -23 6 -23 5 -23 -83z"/>
<path d="M10207 2911 c-4 -17 -3 -21 5 -13 5 5 8 16 6 23 -3 8 -7 3 -11 -10z"/>
<path d="M9875 2820 c3 -5 14 -10 23 -10 15 0 15 2 2 10 -20 13 -33 13 -25 0z"/>
<path d="M5766 2802 c-3 -5 -18 -7 -33 -5 -18 3 -37 -2 -52 -15 l-24 -19 49
-12 c27 -6 57 -14 66 -17 15 -5 18 1 16 35 -1 39 -10 52 -22 33z"/>
<path d="M9756 2793 c-6 -14 -5 -15 5 -6 7 7 10 15 7 18 -3 3 -9 -2 -12 -12z"/>
<path d="M5621 2596 l-1 -157 27 25 c15 14 44 34 63 43 35 17 72 25 65 14 -2
-4 3 -15 11 -26 13 -18 14 -17 15 16 1 19 1 39 0 45 -1 7 7 15 16 19 14 6 10
11 -22 21 l-40 13 48 -4 c26 -2 47 0 47 5 0 5 3 15 6 23 4 12 0 14 -14 10 -14
-3 -22 1 -26 14 -10 32 -45 63 -70 63 -19 0 -23 -4 -19 -20 4 -16 8 -18 19 -9
10 8 14 8 14 0 0 -12 -31 -20 -68 -18 -16 1 -22 6 -19 17 12 43 12 45 -13 45
-14 0 -28 4 -31 9 -4 4 -7 -62 -8 -148z m69 -56 c0 -5 -5 -10 -11 -10 -5 0 -7
5 -4 10 3 6 8 10 11 10 2 0 4 -4 4 -10z"/>
<path d="M9960 2710 c0 -5 5 -10 10 -10 6 0 10 5 10 10 0 6 -4 10 -10 10 -5 0
-10 -4 -10 -10z"/>
<path d="M10684 2635 c11 -8 26 -15 33 -15 22 0 14 8 -19 19 -30 10 -31 9 -14
-4z"/>
<path d="M10655 2620 c3 -5 24 -15 46 -22 23 -6 43 -18 46 -25 3 -7 9 -10 14
-8 10 7 71 -23 81 -39 6 -8 8 -8 8 1 0 21 -49 51 -126 77 -41 13 -72 21 -69
16z"/>
<path d="M10758 2613 c6 -2 18 -2 25 0 6 3 1 5 -13 5 -14 0 -19 -2 -12 -5z"/>
<path d="M7272 2568 c-18 -18 -15 -36 7 -48 26 -13 28 -13 35 6 5 14 4 15 -9
4 -13 -11 -14 -10 -9 4 3 9 1 16 -6 16 -6 0 -9 4 -5 10 3 5 12 7 19 4 8 -3 17
-1 21 5 9 15 -38 14 -53 -1z"/>
<path d="M10670 2570 c0 -5 7 -10 15 -10 8 0 15 5 15 10 0 6 -7 10 -15 10 -8
0 -15 -4 -15 -10z"/>
<path d="M6355 2539 c-4 -6 -5 -12 -2 -15 2 -3 7 2 10 11 7 17 1 20 -8 4z"/>
<path d="M10807 2520 c92 -130 219 -277 230 -266 3 2 -2 17 -10 33 -42 79 -70
140 -71 153 -1 9 -11 29 -24 45 -14 20 -20 23 -15 10 3 -11 10 -25 14 -31 5
-5 5 -20 2 -33 -5 -21 -10 -19 -71 41 -36 34 -61 56 -55 48z"/>
<path d="M10880 2491 c0 -5 7 -15 17 -22 15 -13 15 -12 4 9 -12 23 -21 28 -21
13z"/>
<path d="M5689 2450 c-36 -34 -40 -43 -34 -67 3 -15 12 -35 20 -43 7 -8 15
-22 18 -30 2 -8 3 -3 1 13 -3 21 1 27 16 27 26 0 31 11 14 40 -7 14 -13 19
-14 11 0 -8 -2 -12 -5 -9 -9 8 35 89 45 83 6 -4 10 -1 10 4 0 22 -31 10 -71
-29z"/>
<path d="M5755 2450 c3 -5 10 -10 16 -10 5 0 9 5 9 10 0 6 -7 10 -16 10 -8 0
-12 -4 -9 -10z"/>
<path d="M10977 2433 c-5 -8 18 -73 27 -73 4 0 -13 72 -19 78 -2 2 -5 0 -8 -5z"/>
<path d="M7441 2411 c-6 -10 -7 -22 -3 -26 4 -5 1 -5 -5 -1 -7 4 -13 2 -13 -4
0 -6 -5 -8 -12 -4 -7 4 6 -13 27 -39 22 -26 41 -47 42 -47 2 0 2 29 0 65 -2
67 -18 91 -36 56z"/>
<path d="M7500 2410 c0 -5 5 -10 11 -10 5 0 7 5 4 10 -3 6 -8 10 -11 10 -2 0
-4 -4 -4 -10z"/>
<path d="M7561 2394 c0 -11 3 -14 6 -6 3 7 2 16 -1 19 -3 4 -6 -2 -5 -13z"/>
<path d="M7525 2391 c-5 -10 -4 -16 3 -19 7 -2 12 -8 12 -13 0 -6 -4 -8 -8 -5
-4 2 -9 -6 -10 -19 -1 -13 3 -27 9 -31 8 -4 9 1 4 16 -5 17 -4 21 6 15 8 -5
11 -5 7 0 -4 4 -3 14 3 22 8 9 8 13 1 13 -6 0 -12 8 -14 18 -3 14 -5 15 -13 3z"/>
<path d="M7255 2327 c2 -25 15 -52 40 -82 20 -25 39 -45 42 -45 4 0 -3 10 -15
23 -36 39 -25 43 15 6 l37 -34 -33 40 c-18 22 -43 51 -56 65 -12 14 -25 34
-28 45 -3 11 -4 3 -2 -18z m45 -59 c0 -14 -19 1 -31 25 -12 22 -12 22 10 3 11
-11 21 -23 21 -28z"/>
<path d="M5620 2311 c0 -23 2 -41 4 -41 8 0 12 71 4 76 -4 3 -8 -13 -8 -35z"/>
<path d="M7426 2321 c-3 -4 4 -17 17 -27 22 -19 22 -19 4 2 -9 11 -14 24 -10
27 3 4 4 7 0 7 -3 0 -8 -4 -11 -9z"/>
<path d="M6005 2230 c-4 -6 -10 -8 -15 -5 -5 3 -17 -8 -26 -25 -13 -20 -20
-26 -26 -17 -5 8 -8 6 -8 -6 0 -10 -7 -32 -16 -50 -14 -29 -12 -28 26 13 47
52 84 100 76 100 -3 0 -8 -5 -11 -10z"/>
<path d="M7384 2137 c21 -26 40 -47 43 -47 7 0 -56 78 -70 87 -6 4 6 -14 27
-40z"/>
<path d="M7404 2147 c16 -20 30 -37 33 -37 7 0 -36 58 -49 66 -7 4 1 -9 16
-29z"/>
<path d="M7355 2127 c4 -8 2 -18 -3 -21 -9 -5 16 -107 29 -120 3 -3 13 11 24
30 20 37 13 69 -16 69 -8 0 -13 8 -11 16 1 9 -5 22 -13 29 -13 11 -14 10 -10
-3z"/>
<path d="M9870 1970 c0 -5 5 -10 11 -10 5 0 7 5 4 10 -3 6 -8 10 -11 10 -2 0
-4 -4 -4 -10z"/>
<path d="M10827 1943 c-4 -3 -7 -14 -7 -24 0 -9 -9 -19 -21 -22 -11 -3 -19
-11 -18 -19 4 -30 -2 -44 -23 -53 -27 -12 -37 -45 -14 -45 9 0 16 7 16 15 0 8
5 15 11 15 6 0 8 -7 5 -16 -5 -12 1 -15 30 -12 31 3 38 8 49 40 19 57 26 98
15 98 -6 0 -10 7 -10 15 0 15 -21 21 -33 8z"/>
<path d="M10401 1701 c-19 -3 -36 -11 -38 -17 -3 -8 7 -9 37 -1 22 6 40 15 40
19 0 4 -1 7 -2 7 -2 -1 -18 -4 -37 -8z"/>
<path d="M3108 1613 c7 -3 16 -2 19 1 4 3 -2 6 -13 5 -11 0 -14 -3 -6 -6z"/>
<path d="M3210 1585 c-8 -9 -8 -15 -2 -15 12 0 26 19 19 26 -2 2 -10 -2 -17
-11z"/>
<path d="M2890 1430 c0 -5 5 -10 10 -10 6 0 10 5 10 10 0 6 -4 10 -10 10 -5 0
-10 -4 -10 -10z"/>
<path d="M2872 1372 l-1 -39 52 10 c61 12 61 12 52 27 -6 9 -10 9 -17 -1 -8
-11 -11 -11 -15 -1 -9 22 -34 42 -53 42 -14 0 -18 -8 -18 -38z"/>
<path d="M3106 1385 c-3 -8 -1 -15 4 -15 6 0 10 7 10 15 0 8 -2 15 -4 15 -2 0
-6 -7 -10 -15z"/>
<path d="M9913 1389 c-12 -4 -27 -24 -34 -43 -7 -20 -16 -36 -19 -36 -4 0 -6
-25 -5 -55 1 -30 -2 -55 -7 -55 -6 0 -8 -7 -4 -15 3 -8 1 -15 -4 -15 -5 0 -7
-6 -4 -14 13 -34 89 5 82 42 -2 9 3 22 11 29 10 7 16 27 15 57 0 25 4 46 8 46
12 0 9 33 -5 51 -9 11 -19 14 -34 8z"/>
<path d="M2990 1370 c0 -5 5 -10 10 -10 6 0 10 5 10 10 0 6 -4 10 -10 10 -5 0
-10 -4 -10 -10z"/>
<path d="M10336 1252 c-3 -6 -1 -14 5 -17 15 -10 25 3 12 16 -7 7 -13 7 -17 1z"/>
<path d="M7406 973 c-6 -14 -5 -15 5 -6 7 7 10 15 7 18 -3 3 -9 -2 -12 -12z"/>
<path d="M7400 941 c0 -6 4 -13 10 -16 6 -3 7 1 4 9 -7 18 -14 21 -14 7z"/>
<path d="M7380 923 c0 -6 8 -17 18 -24 16 -13 16 -13 2 6 -8 11 -16 22 -17 24
-2 2 -3 0 -3 -6z"/>
<path d="M7324 905 c-21 -16 -19 -17 24 -19 23 -1 28 3 24 17 -5 21 -22 22
-48 2z"/>
<path d="M7326 836 c3 -8 14 -16 25 -19 25 -7 24 -3 -6 17 -19 13 -23 13 -19
2z"/>
<path d="M7463 836 c3 -8 -1 -13 -11 -12 -10 1 -16 -5 -13 -14 11 -44 13 -102
4 -97 -6 4 -8 19 -5 33 3 19 1 25 -7 20 -6 -4 -11 -3 -11 3 0 18 -41 34 -54
21 -8 -8 -7 -10 5 -5 9 3 16 1 16 -7 0 -32 37 -68 82 -82 25 -7 47 -12 49 -11
5 4 -49 165 -55 165 -3 0 -3 -6 0 -14z"/>
<path d="M7410 811 c0 -6 4 -13 10 -16 6 -3 7 1 4 9 -7 18 -14 21 -14 7z"/>
<path d="M6952 740 c-18 -29 -15 -42 11 -38 16 2 23 11 25 31 4 32 -17 37 -36
7z"/>
<path d="M5952 710 c0 -14 2 -19 5 -12 2 6 2 18 0 25 -3 6 -5 1 -5 -13z"/>
<path d="M6742 718 c3 -7 17 -14 33 -16 26 -3 27 -2 12 12 -19 19 -50 21 -45
4z"/>
<path d="M8015 690 c4 -14 25 -43 47 -65 l41 -40 -23 40 c-13 22 -34 51 -48
65 l-24 25 7 -25z"/>
<path d="M6936 673 c-3 -4 -6 -11 -6 -17 0 -6 5 -4 11 4 8 11 12 12 16 3 6
-16 46 -17 41 -2 -4 13 -52 21 -62 12z"/>
<path d="M7040 660 c0 -5 5 -10 10 -10 6 0 10 5 10 10 0 6 -4 10 -10 10 -5 0
-10 -4 -10 -10z"/>
<path d="M5860 606 c0 -13 -3 -32 -7 -42 -6 -16 -3 -15 16 3 19 18 21 25 12
42 -15 27 -21 27 -21 -3z"/>
<path d="M7348 590 c-4 -24 -1 -30 14 -30 22 0 24 32 4 49 -11 9 -15 6 -18
-19z"/>
<path d="M7040 585 c0 -14 5 -25 10 -25 6 0 10 11 10 25 0 14 -4 25 -10 25 -5
0 -10 -11 -10 -25z"/>
<path d="M6947 587 c3 -6 7 -23 9 -40 3 -41 18 -53 32 -23 10 22 9 24 -6 19
-14 -5 -15 -3 -4 8 6 7 12 20 12 29 0 13 -1 13 -10 0 -8 -13 -14 -8 -12 11 1
3 -5 6 -13 6 -8 0 -11 -5 -8 -10z"/>
<path d="M7124 593 c4 -6 1 -13 -5 -15 -7 -2 -10 -9 -8 -15 2 -6 12 -7 22 -4
16 6 16 8 2 26 -9 11 -14 15 -11 8z"/>
<path d="M6820 504 c17 -48 37 -99 46 -112 26 -39 95 -112 107 -112 6 0 3 6
-7 13 -18 13 -18 14 -1 14 10 0 20 -8 22 -17 5 -19 57 -40 99 -40 22 0 25 3
14 10 -10 6 -19 37 -25 87 l-10 78 -37 1 c-54 2 -62 -7 -56 -60 7 -57 -7 -60
-23 -6 -7 22 -16 40 -22 40 -5 0 -7 6 -4 14 7 17 -13 27 -41 19 -30 -7 -35 13
-10 39 17 17 23 35 23 68 l0 45 -52 3 -52 3 29 -87z m125 -174 c3 -5 1 -10 -4
-10 -6 0 -11 5 -11 10 0 6 2 10 4 10 3 0 8 -4 11 -10z"/>
<path d="M7293 563 c-13 -2 -23 -9 -23 -14 0 -11 39 -2 55 12 9 9 7 10 -32 2z"/>
<path d="M7360 538 c-25 -10 -25 -10 -4 -18 12 -5 36 -11 55 -14 19 -4 69 -15
111 -25 l78 -18 -24 39 -23 39 -84 3 c-47 2 -96 -1 -109 -6z"/>
<path d="M7194 510 c3 -14 6 -28 6 -32 0 -5 5 -8 10 -8 15 0 12 24 -6 46 -15
18 -15 18 -10 -6z"/>
<path d="M7031 504 c0 -11 3 -14 6 -6 3 7 2 16 -1 19 -3 4 -6 -2 -5 -13z"/>
<path d="M11036 498 c10 -13 20 -25 21 -27 2 -2 3 8 3 22 0 21 -5 27 -22 27
-21 0 -21 0 -2 -22z"/>
<path d="M7152 480 c7 -10 14 -18 15 -16 6 6 -9 36 -18 36 -5 0 -4 -9 3 -20z"/>
<path d="M11001 482 c0 -13 -6 -32 -11 -43 -8 -13 -7 -19 0 -19 15 0 22 24 17
57 -3 23 -4 24 -6 5z"/>
<path d="M7024 464 c-10 -8 -13 -12 -5 -8 7 3 17 0 22 -7 6 -10 8 -7 6 9 0 12
-2 22 -2 22 -1 0 -10 -7 -21 -16z"/>
<path d="M7176 412 c-4 -7 -6 -46 -5 -88 1 -55 6 -77 16 -81 28 -11 -9 -23
-69 -23 -31 0 -60 -4 -63 -10 -4 -6 11 -10 37 -11 24 0 61 -4 83 -8 l40 -8
-40 -7 c-22 -4 -47 -8 -55 -10 -8 -1 13 -8 48 -15 34 -8 62 -18 62 -22 0 -5
17 -9 38 -9 30 0 39 4 40 18 1 19 -22 104 -44 167 -19 51 -78 123 -88 107z"/>
<path d="M1570 391 c0 -5 5 -13 10 -16 6 -3 10 -2 10 4 0 5 -4 13 -10 16 -5 3
-10 2 -10 -4z"/>
<path d="M1348 362 c-11 -2 -18 -13 -18 -25 0 -14 3 -18 8 -10 4 7 18 16 31
21 27 10 9 21 -21 14z"/>
<path d="M7115 320 c4 -19 11 -39 15 -44 5 -5 5 8 0 29 -11 47 -25 61 -15 15z"/>
<path d="M1290 299 c0 -5 5 -7 10 -4 6 3 10 8 10 11 0 2 -4 4 -10 4 -5 0 -10
-5 -10 -11z"/>
<path d="M6904 285 c8 -16 24 -60 36 -97 l22 -68 101 0 c95 1 100 2 71 14 -18
8 -35 19 -39 26 -5 7 -24 9 -60 5 -43 -6 -53 -4 -58 9 -4 10 -1 16 9 16 8 0
12 5 9 10 -4 6 -11 8 -16 4 -14 -8 -49 25 -49 46 0 10 -9 28 -21 41 l-20 24
15 -30z"/>
<path d="M7421 287 c14 -6 33 -20 43 -29 10 -10 27 -18 39 -18 18 0 19 2 7 11
-12 8 -9 10 12 6 48 -7 20 10 -34 23 -91 20 -95 21 -67 7z"/>
</g>
</svg>
